{
  "accessors": [
    {
      "bufferView": 1,
      "componentType": 5126,
      "count": 116,
      "max": [
        1.1690499782562256,
        1.956779956817627,
        5.0499701499938965
      ],
      "min": [
        -1.1061199903488159,
        -0.84214997291564941,
        -1.007099986076355
      ],
      "type": "VEC3"
    },
    {
      "bufferView": 1,
      "byteOffset": 1392,
      "componentType": 5126,
      "count": 116,
      "max": [
        0.99993687868118286,
        0.99861663579940796,
        0.61961960792541504
      ],
      "min": [
        -0.99993687868118286,
        -0.99828296899795532,
        -0.99995642900466919
      ],
      "type": "VEC3"
    },
    {
      "bufferView": 0,
      "componentType": 5125,
      "count": 174,
      "max": [
        115
      ],
      "min": [
        0
      ],
      "type": "SCALAR"
    },
    {
      "bufferView": 1,
      "byteOffset": 2784,
      "componentType": 5126,
      "count": 201,
      "max": [
        6.0373902320861816,
        6.095670223236084,
        5.2445998191833496
      ],
      "min": [
        -7.7726302146911621,
        -8.0965404510498047,
        3.4981799125671387
      ],
      "type": "VEC3"
    },
    {
      "bufferView": 1,
      "byteOffset": 5196,
      "componentType": 5126,
      "count": 201,
      "max": [
        0.99982953071594238,
        0.89807331562042236,
        0.99962347745895386
      ],
      "min": [
        -0.99982953071594238,
        -0.89807331562042236,
        -0.99962347745895386
      ],
      "type": "VEC3"
    },
    {
      "bufferView": 0,
      "byteOffset": 696,
      "componentType": 5125,
      "count": 312,
      "max": [
        200
      ],
      "min": [
        0
      ],
      "type": "SCALAR"
    },
    {
      "bufferView": 1,
      "byteOffset": 7608,
      "componentType": 5126,
      "count": 90,
      "max": [
        1.0438899993896484,
        0.99279999732971191,
        1.06072998046875
      ],
      "min": [
        -1.0438899993896484,
        -0.99279999732971191,
        -1.06072998046875
      ],
      "type": "VEC3"
    },
    {
      "bufferView": 1,
      "byteOffset": 8688,
      "componentType": 5126,
      "count": 90,
      "max": [
        0.86137157678604126,
        0.95466923713684082,
        0.86305242776870728
      ],
      "min": [
        -0.84736144542694092,
        -0.93438267707824707,
        -0.91877210140228271
      ],
      "type": "VEC3"
    },
    {
      "bufferView": 0,
      "byteOffset": 1944,
      "componentType": 5125,
      "count": 90,
      "max": [
        89
      ],
      "min": [
        0
      ],
      "type": "SCALAR"
    },
    {
      "bufferView": 1,
      "byteOffset": 9768,
      "componentType": 5126,
      "count": 90,
      "max": [
        1.0438899993896484,
        0.99279999732971191,
        1.06072998046875
      ],
      "min": [
        -1.0438899993896484,
        -0.99279999732971191,
        -1.06072998046875
      ],
      "type": "VEC3"
    },
    {
      "bufferView": 1,
      "byteOffset": 10848,
      "componentType": 5126,
      "count": 90,
      "max": [
        0.86137157678604126,
        0.95466923713684082,
        0.86305242776870728
      ],
      "min": [
        -0.84736144542694092,
        -0.93438267707824707,
        -0.91877210140228271
      ],
      "type": "VEC3"
    },
    {
      "bufferView": 0,
      "byteOffset": 2304,
      "componentType": 5125,
      "count": 90,
      "max": [
        89
      ],
      "min": [
        0
      ],
      "type": "SCALAR"
    },
    {
      "bufferView": 1,
      "byteOffset": 11928,
      "componentType": 5126,
      "count": 90,
      "max": [
        1.0438899993896484,
        0.99279999732971191,
        1.06072998046875
      ],
      "min": [
        -1.0438899993896484,
        -0.99279999732971191,
        -1.06072998046875
      ],
      "type": "VEC3"
    },
    {
      "bufferView": 1,
      "byteOffset": 13008,
      "componentType": 5126,
      "count": 90,
      "max": [
        0.86137157678604126,
        0.95466923713684082,
        0.86305242776870728
      ],
      "min": [
        -0.84736144542694092,
        -0.93438267707824707,
        -0.91877210140228271
      ],
      "type": "VEC3"
    },
    {
      "bufferView": 0,
      "byteOffset": 2664,
      "componentType": 5125,
      "count": 90,
      "max": [
        89
      ],
      "min": [
        0
      ],
      "type": "SCALAR"
    },
    {
      "bufferView": 1,
      "byteOffset": 14088,
      "componentType": 5126,
      "count": 90,
      "max": [
        1.0438899993896484,
        0.99279999732971191,
        1.06072998046875
      ],
      "min": [
        -1.0438899993896484,
        -0.99279999732971191,
        -1.06072998046875
      ],
      "type": "VEC3"
    },
    {
      "bufferView": 1,
      "byteOffset": 15168,
      "componentType": 5126,
      "count": 90,
      "max": [
        0.86137157678604126,
        0.95466923713684082,
        0.86305242776870728
      ],
      "min": [
        -0.84736144542694092,
        -0.93438267707824707,
        -0.91877210140228271
      ],
      "type": "VEC3"
    },
    {
      "bufferView": 0,
      "byteOffset": 3024,
      "componentType": 5125,
      "count": 90,
      "max": [
        89
      ],
      "min": [
        0
      ],
      "type": "SCALAR"
    }
  ],
  "asset": {
    "extras": {
      "author": "Jiří Kuba (https://sketchfab.com/kuba.jirka)",
      "license": "CC-BY-4.0 (http://creativecommons.org/licenses/by/4.0/)",
      "source": "https://sketchfab.com/models/69dbd02d8fdd4aa1b0b1817a324b06e8",
      "title": "Lowpoly palm"
    },
    "generator": "Sketchfab-3.18.6",
    "version": "2.0"
  },
  "bufferViews": [
    {
      "buffer": 0,
      "byteLength": 3384,
      "byteOffset": 0,
      "name": "floatBufferViews",
      "target": 34963
    },
    {
      "buffer": 0,
      "byteLength": 16248,
      "byteOffset": 3384,
      "byteStride": 12,
      "name": "floatBufferViews",
      "target": 34962
    }
  ],
  "buffers": [
    {
      "byteLength": 19632,
      "uri": "scene.bin"
    }
  ],
  "extensionsRequired": [
    "KHR_materials_pbrSpecularGlossiness"
  ],
  "extensionsUsed": [
    "KHR_materials_pbrSpecularGlossiness"
  ],
  "materials": [
    {
      "doubleSided": true,
      "extensions": {
        "KHR_materials_pbrSpecularGlossiness": {
          "diffuseFactor": [
            0.87410166889999996,
            0.26376851579999999,
            0,
            1
          ],
          "glossinessFactor": 0,
          "specularFactor": [
            0,
            0,
            0
          ]
        }
      },
      "name": "NutMat"
    },
    {
      "doubleSided": true,
      "extensions": {
        "KHR_materials_pbrSpecularGlossiness": {
          "diffuseFactor": [
            0.38638409709999999,
            0.074192714300000004,
            0.00089710300000000001,
            1
          ],
          "glossinessFactor": 0,
          "specularFactor": [
            0,
            0,
            0
          ]
        }
      },
      "name": "MudMat"
    },
    {
      "doubleSided": true,
      "extensions": {
        "KHR_materials_pbrSpecularGlossiness": {
          "diffuseFactor": [
            0.034342935099999999,
            0.51224159469999997,
            0,
            1
          ],
          "glossinessFactor": 0,
          "specularFactor": [
            0,
            0,
            0
          ]
        }
      },
      "name": "PlanetMat"
    }
  ],
  "meshes": [
    {
      "name": "Cube.001_0",
      "primitives": [
        {
          "attributes": {
            "NORMAL": 1,
            "POSITION": 0
          },
          "indices": 2,
          "material": 1,
          "mode": 4
        }
      ]
    },
    {
      "name": "Cube.001_1",
      "primitives": [
        {
          "attributes": {
            "NORMAL": 4,
            "POSITION": 3
          },
          "indices": 5,
          "material": 2,
          "mode": 4
        }
      ]
    },
    {
      "name": "Nut_0",
      "primitives": [
        {
          "attributes": {
            "NORMAL": 7,
            "POSITION": 6
          },
          "indices": 8,
          "material": 0,
          "mode": 4
        }
      ]
    },
    {
      "name": "Nut.001_0",
      "primitives": [
        {
          "attributes": {
            "NORMAL": 10,
            "POSITION": 9
          },
          "indices": 11,
          "material": 0,
          "mode": 4
        }
      ]
    },
    {
      "name": "Nut.002_0",
      "primitives": [
        {
          "attributes": {
            "NORMAL": 13,
            "POSITION": 12
          },
          "indices": 14,
          "material": 0,
          "mode": 4
        }
      ]
    },
    {
      "name": "Nut.003_0",
      "primitives": [
        {
          "attributes": {
            "NORMAL": 16,
            "POSITION": 15
          },
          "indices": 17,
          "material": 0,
          "mode": 4
        }
      ]
    }
  ],
  "nodes": [
    {
      "children": [
        1
      ],
      "name": "RootNode (gltf orientation matrix)",
      "rotation": [
        -0.70710678118654746,
        -0,
        -0,
        0.70710678118654757
      ]
    },
    {
      "children": [
        2
      ],
      "name": "RootNode (model correction matrix)"
    },
    {
      "children": [
        3,
        6,
        8,
        10,
        12,
        14
      ],
      "name": "Root"
    },
    {
      "children": [
        4,
        5
      ],
      "matrix": [
        -0.073330000000000006,
        0.40350000000000003,
        0,
        0,
        -0.40350000000000003,
        -0.073330000000000006,
        0,
        0,
        0,
        0,
        1.21011,
        0,
        0,
        0,
        0,
        1
      ],
      "name": "Cube.001"
    },
    {
      "mesh": 0,
      "name": "Cube.001_0"
    },
    {
      "mesh": 1,
      "name": "Cube.001_1"
    },
    {
      "children": [
        7
      ],
      "matrix": [
        0.52012999999999998,
        0.43163000000000001,
        -0.7370000000000001,
        0,
        -0.79288000000000003,
        0.56480000000000008,
        -0.22879000000000005,
        0,
        0.31750000000000006,
        0.70335000000000003,
        0.63600000000000012,
        0,
        5.0464000000000002,
        16.473339999999997,
        9.8480399999999992,
        1
      ],
      "name": "Sun"
    },
    {
      "name": "Sun"
    },
    {
      "children": [
        9
      ],
      "matrix": [
        0.09854000000000003,
        0.021650000000000006,
        -0.18962000000000001,
        0,
        0.06907000000000002,
        0.19489000000000004,
        0.058150000000000014,
        0,
        0.17791000000000004,
        -0.08766000000000003,
        0.082450000000000009,
        0,
        0.32449000000000006,
        -0.07179000000000002,
        5.9029699999999998,
        1
      ],
      "name": "Nut"
    },
    {
      "mesh": 2,
      "name": "Nut_0"
    },
    {
      "children": [
        11
      ],
      "matrix": [
        0.18940000000000004,
        0.0015400000000000006,
        -0.14532,
        0,
        0.06832000000000002,
        0.20976000000000003,
        0.091260000000000036,
        0,
        0.12827,
        -0.11399000000000002,
        0.16597000000000003,
        0,
        -0.097000000000000031,
        -0.22112000000000001,
        5.8840799999999991,
        1
      ],
      "name": "Nut.001"
    },
    {
      "mesh": 3,
      "name": "Nut.001_0"
    },
    {
      "children": [
        13
      ],
      "matrix": [
        0.22197000000000003,
        0.055950000000000007,
        0.087950000000000014,
        0,
        -0.10354000000000001,
        0.14222000000000001,
        0.17085,
        0,
        -0.012030000000000002,
        -0.19178000000000003,
        0.15236000000000002,
        0,
        -0.25948000000000004,
        0.14170000000000002,
        5.8979799999999987,
        1
      ],
      "name": "Nut.002"
    },
    {
      "mesh": 4,
      "name": "Nut.002_0"
    },
    {
      "children": [
        15
      ],
      "matrix": [
        -0.14635000000000001,
        -0.09198000000000002,
        -0.11061000000000001,
        0,
        0.11111000000000001,
        0.027940000000000006,
        -0.17026000000000002,
        0,
        0.091370000000000021,
        -0.18131000000000003,
        0.029880000000000004,
        0,
        0.15493000000000004,
        0.28875000000000001,
        5.8926799999999995,
        1
      ],
      "name": "Nut.003"
    },
    {
      "mesh": 5,
      "name": "Nut.003_0"
    }
  ],
  "scene": 0,
  "scenes": [
    {
      "name": "OSG_Scene",
      "nodes": [
        0
      ]
    }
  ]
}

