<?xml version="1.0" encoding="utf-8"?>
<!-- Generator: Adobe Illustrator 25.0.0, SVG Export Plug-In . SVG Version: 6.00 Build 0)  -->
<svg version="1.1" baseProfile="tiny" id="Calque_1"
	 xmlns="http://www.w3.org/2000/svg" xmlns:xlink="http://www.w3.org/1999/xlink" x="0px" y="0px" viewBox="0 0 56.09 74.4"
	 overflow="visible" xml:space="preserve">
<g>
	<path fill="#FFFFFF" d="M24.48,8.66c1.42,9.9,2.09,19.91,2.02,29.92c-0.03,4.94-0.25,9.88-0.65,14.81
		c-0.2,2.42-0.43,4.84-0.72,7.26c-0.15,1.29-0.35,2.57-0.49,3.86c-0.13,1.22-0.31,2.34,0.19,3.49c0.29,0.67,1.42,0.78,1.87,0.24
		c0.8-0.95,0.93-2.1,1.12-3.3c0.2-1.26,0.32-2.54,0.46-3.81c0.28-2.58,0.51-5.16,0.69-7.74c0.35-5.01,0.52-10.03,0.49-15.05
		C29.42,28.16,28.59,18,27.04,7.95C26.78,6.26,24.24,6.99,24.48,8.66L24.48,8.66z"/>
</g>
<g>
	<path fill="#FFFFFF" d="M2.96,42.04c3.58,4.89,7.44,9.58,11.2,14.33c3.81,4.82,7.6,9.65,11.46,14.43c0.64,0.79,1.88,0.27,2.14-0.57
		C31.89,57.16,43.64,49.11,54,41.18c0.95-0.73,0.1-2.34-0.97-1.65c-11.41,7.35-23.42,16.58-27.75,30.02
		c0.71-0.19,1.43-0.38,2.14-0.57c-3.78-4.73-7.62-9.4-11.45-14.09c-3.82-4.69-7.56-9.45-11.55-13.99
		C3.74,40.11,2.32,41.17,2.96,42.04L2.96,42.04z"/>
</g>
<g>
</g>
<g>
</g>
<g>
</g>
<g>
</g>
<g>
</g>
<g>
</g>
</svg>
