<?xml version="1.0" encoding="utf-8"?>
<!-- Generator: Adobe Illustrator 25.0.0, SVG Export Plug-In . SVG Version: 6.00 Build 0)  -->
<svg version="1.1" baseProfile="tiny" id="Calque_1"
	 xmlns="http://www.w3.org/2000/svg" xmlns:xlink="http://www.w3.org/1999/xlink" x="0px" y="0px" viewBox="0 0 79.49 52.93"
	 overflow="visible" xml:space="preserve">
<g>
	<path fill="#FFFFFF" d="M4.49,12.62c-1.93-0.88-3.65,1.93-1.7,2.9c4.89,2.42,9.78,4.85,14.74,7.11
		c16.95,7.73,36.87,14.29,55.5,9.28c1.78-0.48,1.46-3.54-0.45-3.3c-5.13,0.64-10.41,0.76-15.57,0.49
		C38.41,28.13,21.18,20.23,4.49,12.62L4.49,12.62z"/>
</g>
<g>
	<path fill="#FFFFFF" d="M53.08,3.11c0.7,1.2,1.73,2.22,2.64,3.28c0.93,1.09,1.84,2.18,2.76,3.27c1.82,2.19,3.63,4.41,5.43,6.62
		c3.59,4.41,7.07,8.91,10.44,13.49c0.11-0.82,0.21-1.65,0.32-2.47c-4.22,3.51-8.34,7.16-12.55,10.69
		c-4.21,3.54-8.33,7.14-12.19,11.05c-1.04,1.05,0.34,3.02,1.63,2.12c4.57-3.18,8.87-6.66,13.12-10.25c4.27-3.6,8.62-7.1,12.87-10.72
		c0.62-0.53,0.83-1.8,0.32-2.47c-3.54-4.68-7.18-9.29-10.93-13.8c-1.82-2.19-3.68-4.34-5.58-6.46C59.42,5.29,57.53,2.71,55.19,1
		C53.89,0.05,52.35,1.86,53.08,3.11L53.08,3.11z"/>
</g>
</svg>
