<?xml version="1.0" encoding="utf-8"?>
<!-- Generator: Adobe Illustrator 25.0.0, SVG Export Plug-In . SVG Version: 6.00 Build 0)  -->
<svg version="1.1" baseProfile="tiny" id="Calque_1"
	 xmlns="http://www.w3.org/2000/svg" xmlns:xlink="http://www.w3.org/1999/xlink" x="0px" y="0px" viewBox="0 0 79.49 52.93"
	 overflow="visible" xml:space="preserve">
<g>
	<path fill="#FFFFFF" d="M5.67,25.75c9.29-1.52,18.91-0.72,28.03,1.44c9.23,2.19,17.87,5.88,26.41,9.91
		c4.77,2.25,9.37,4.89,14.39,6.57c1.16,0.39,2.29-1.36,1.25-2.15c-3.87-3-8.2-5.16-12.57-7.35c-4.4-2.2-8.94-4.16-13.54-5.92
		c-9.08-3.46-18.64-5.96-28.37-6.5c-5.48-0.31-11,0.08-16.39,1.14C2.99,23.26,3.81,26.05,5.67,25.75L5.67,25.75z"/>
</g>
<g>
	<path fill="#FFFFFF" d="M20.22,0.84c-2.65,4.23-5.48,8.33-8.57,12.24c-1.5,1.9-3.05,3.77-4.64,5.59c-1.59,1.82-3.24,4.19-5.3,5.49
		c-1.03,0.65-0.77,2.08,0.32,2.48c5.65,2.06,10.74,5.16,14.86,9.57c3.93,4.2,6.66,9.44,8.57,14.83c0.64,1.82,3.08,1.06,2.83-0.78
		c-0.89-6.38-4.46-11.99-8.96-16.49c-4.54-4.54-10.34-8.14-16.58-9.75c0.27,0.66,0.54,1.33,0.81,1.99c1.19-2.18,3.27-4.01,4.86-5.93
		c1.6-1.93,3.15-3.9,4.65-5.91c3.03-4.04,5.9-8.22,8.57-12.51C22.19,0.77,20.78-0.06,20.22,0.84L20.22,0.84z"/>
</g>
<g>
</g>
<g>
</g>
<g>
</g>
<g>
</g>
<g>
</g>
<g>
</g>
</svg>
