<?xml version="1.0" encoding="utf-8"?>
<!-- Generator: Adobe Illustrator 25.0.0, SVG Export Plug-In . SVG Version: 6.00 Build 0)  -->
<svg version="1.1" baseProfile="tiny" id="Calque_1"
	 xmlns="http://www.w3.org/2000/svg" xmlns:xlink="http://www.w3.org/1999/xlink" x="0px" y="0px" viewBox="0 0 56.09 74.4"
	 overflow="visible" xml:space="preserve">
<g>
	<path fill="#FFFFFF" d="M27.38,8.57C27.33,24,27.51,39.39,28.62,54.78c0.37,5.16,0.69,10.34,1.6,15.44c0.2,1.09,1.87,0.8,1.88-0.25
		c0.11-8.32-1.01-16.66-1.46-24.97c-0.38-7-0.56-14-0.62-21.01c-0.04-5.14-0.04-10.28-0.03-15.41C30,6.89,27.38,6.88,27.38,8.57
		L27.38,8.57z"/>
</g>
<g>
	<path fill="#FFFFFF" d="M3.94,24.45c5.2-1.19,10.16-3.37,14.55-6.4c4.34-2.99,8.47-6.66,11.41-11.07c-0.83,0-1.66,0-2.49,0
		c2.2,4.67,5.41,8.86,9.34,12.21c3.91,3.33,8.47,6.07,13.57,6.96c0.96,0.17,1.77-1.25,0.72-1.71c-4.43-1.94-8.81-4.14-12.48-7.33
		c-3.68-3.21-6.62-7.14-8.67-11.58c-0.49-1.06-1.94-0.81-2.49,0c-2.86,4.22-6.06,8.03-10.27,10.98c-4.14,2.9-8.77,5-13.68,6.22
		C2.33,22.99,2.81,24.71,3.94,24.45L3.94,24.45z"/>
</g>
<g>
</g>
<g>
</g>
<g>
</g>
<g>
</g>
<g>
</g>
<g>
</g>
</svg>
