<?xml version="1.0" encoding="utf-8"?>
<!-- Generator: Adobe Illustrator 25.0.0, SVG Export Plug-In . SVG Version: 6.00 Build 0)  -->
<svg version="1.1" id="Calque_1" xmlns="http://www.w3.org/2000/svg" xmlns:xlink="http://www.w3.org/1999/xlink" x="0px" y="0px"
	 viewBox="0 0 213.07 128.98" style="enable-background:new 0 0 213.07 128.98;" xml:space="preserve">
<style type="text/css">
	.st0{fill:#FFFFFF;}
</style>
<g>
	<g>
		<path class="st0" d="M3.14,6.82C2.98,18.39,3.45,29.96,4.68,41.47c0.55,5.15,1.23,10.29,2.05,15.4c0.43,2.73,1.02,5.47,1.16,8.24
			c0.14,2.9-0.63,5.38-1.09,8.18c-0.55,3.4,2.98,5.58,5.69,3.31c7.86-6.55,1.92-22.17,0.72-30.46c-1.89-13.02-2.75-26.17-2.81-39.33
			C10.37,2.16,3.2,2.15,3.14,6.82L3.14,6.82z"/>
	</g>
</g>
<g>
	<g>
		<path class="st0" d="M6.76,10.73c5.78,3.64,12.5,4.38,19.16,4.99c8.7,0.79,17.61,2.11,26.35,1.52c3.4-0.23,4.63-5.57,0.86-6.32
			C45.78,9.45,38.26,9.38,30.8,8.95c-7.04-0.4-14.51-0.04-20.47-4.32C6.67,2.01,2.88,8.28,6.76,10.73L6.76,10.73z"/>
	</g>
</g>
<g>
	<g>
		<path class="st0" d="M10.35,78.26c10.04,2.57,21.76,4.76,32.06,2.74c3-0.59,2.03-4.82-0.68-5.03c-10.2-0.79-19.88-0.4-29.98-2.77
			C8.46,72.42,7.07,77.41,10.35,78.26L10.35,78.26z"/>
	</g>
</g>
<g>
	<g>
		<path class="st0" d="M110.72,16.51c-1.73,15.43-3.49,30.92-3.45,46.47c0.01,4.93,0.32,10.95,5.54,13.2
			c3.91,1.68,8.35-0.04,9.4-4.3c0.73-2.98-3.38-6.03-5.59-3.25c-1.56,1.96-2.12-8.26-2.16-9.52c-0.15-4.85-0.13-9.69,0.01-14.53
			c0.27-9.37,0.95-18.71,1.63-28.06C116.35,13.01,111.1,13.14,110.72,16.51L110.72,16.51z"/>
	</g>
</g>
<g>
	<g>
		<path class="st0" d="M114.76,48.68c1.92,0.53,3.81,1.05,5.77,1.39c2.51,0.43,3.42-2.88,1.05-3.8c-1.86-0.71-3.75-1.23-5.67-1.75
			C113.23,43.79,112.09,47.95,114.76,48.68L114.76,48.68z"/>
	</g>
</g>
<g>
	<g>
		<path class="st0" d="M132.47,64.31c5.62,1.96,21.6,3.3,21.1-6.55c-0.39-7.52-13.23-7.84-17.73-4.32
			c-5.19,4.06-5.02,15.47-0.9,20.17c6.26,7.13,19.57,3.41,26.71-0.11c2.86-1.41,0.86-6.09-2.17-5.14
			c-4.42,1.38-9.17,2.37-13.81,2.32c-1.82-0.02-4.55,0.07-6.01-1.23c-1.75-1.55-1.74-4.35-1.64-6.45c0.14-2.9,0.7-5.14,3.86-5.69
			c1.09-0.19,3.75,0.02,4.51,0.69c1.59,0.1,1.56,0.76-0.09,1.99c-1.28,0.58-2.6,0.99-3.97,1.26c-3.01,0.52-5.9,0.06-8.79-0.8
			C131.04,59.72,130.06,63.47,132.47,64.31L132.47,64.31z"/>
	</g>
</g>
<g>
	<g>
		<path class="st0" d="M164.53,56.81c0.25,5.55,1.61,10.63,3.85,15.69c1.6-0.93,3.2-1.87,4.8-2.8c-1.74-2.49-4.14-5.24-4.62-8.34
			c-0.66-4.26,3.47-4.16,6.9-4.29c6.22-0.24,12.04,0.52,18.02-1.67c3.86-1.41,2.35-6.89-1.69-6.15c-8.5,1.55-20.93-1.88-28.15,4.19
			c-5.92,4.98,0.78,15.87,5.19,19.63c2.24,1.91,6.26-0.59,4.36-3.36c-2.71-3.96-4.17-8.1-4.59-12.89
			C168.37,54.25,164.41,54.17,164.53,56.81L164.53,56.81z"/>
	</g>
</g>
<g>
	<g>
		<path class="st0" d="M8.7,120.69c31.01-0.11,61.5-9.01,92.02-13.57c31.56-4.71,63.4-7.09,95.29-8.01c5.37-0.16,5.41-8.47,0-8.38
			c-31.32,0.54-62.55,3.58-93.48,8.47c-15.26,2.41-30.38,5.41-45.46,8.77c-15.96,3.55-31.97,6.91-48.36,7.47
			C5.34,115.55,5.31,120.7,8.7,120.69L8.7,120.69z"/>
	</g>
</g>
<g>
	<g>
		<path class="st0" d="M184.71,81.16c5.11,7.02,11.08,12.99,18.1,18.09c0-2,0-3.99,0-5.99c-7.14,5.49-14.88,12.84-17.68,21.66
			c-0.83,2.62,2.96,5.05,4.81,2.8c5.39-6.6,9.42-13.24,16.38-18.47c2.14-1.61,2.29-4.4,0-5.99c-6.14-4.26-11.56-9.37-16.1-15.31
			C187.77,74.75,182.27,77.81,184.71,81.16L184.71,81.16z"/>
	</g>
</g>
<g>
	<g>
		<path class="st0" d="M55.17,76.77c12.49,1.42,8.4-11.91,16.27-17.29c-1.24-0.33-2.49-0.65-3.73-0.98
			c3.1,4.44,4.44,9.19,4.25,14.59c1.92-0.52,3.83-1.04,5.75-1.56c-1.2-2.48-1.6-5.13-0.87-7.81c0.86-3.17,2.52-4.9,4.09-1.09
			c1.28,3.11,1.05,6.62,2.72,9.66c2.64,4.82,8.92,7.13,13.2,2.96c2.7-2.63-0.72-6.56-3.86-5.01c-3.65,1.8-5.53-10.2-7.14-12.57
			c-1.91-2.82-5.38-4.85-8.8-3.75c-8.07,2.6-7.65,14.75-4.66,20.72c1.42,2.85,5.68,1.34,5.75-1.56c0.16-6.74-2.04-12.6-6.14-17.89
			c-0.66-0.85-2.44-1.09-3.31-0.43c-2.82,2.14-5.01,4.53-6.35,7.86c-1.67,4.18-0.95,9.95-7.17,9.2
			C52.03,71.46,52.04,76.42,55.17,76.77L55.17,76.77z"/>
	</g>
</g>
<g>
	<g>
		<path class="st0" d="M12.73,45.66c4.7,2.14,10.33,4.46,15.56,3.63c3.79-0.6,3.85-7.17,0-7.71c-2.3-0.33-4.47-0.08-6.77-0.04
			c-2.27,0.04-4.46-0.37-6.67-0.91C11.96,39.93,9.78,44.32,12.73,45.66L12.73,45.66z"/>
	</g>
</g>
</svg>
