<?xml version="1.0" encoding="utf-8"?>
<!-- Generator: Adobe Illustrator 25.0.0, SVG Export Plug-In . SVG Version: 6.00 Build 0)  -->
<svg version="1.1" baseProfile="tiny" id="Calque_1"
	 xmlns="http://www.w3.org/2000/svg" xmlns:xlink="http://www.w3.org/1999/xlink" x="0px" y="0px" viewBox="0 0 658.19 662"
	 overflow="visible" xml:space="preserve">
<g>
	<polygon fill="#FFFFFF" points="0,47.42 0,47.42 0,47.41 	"/>
	<path fill="#FFFFFF" d="M609.21,0H48.62C21.78,0,0,21.24,0,47.42V614.6C0,640.77,21.78,662,48.62,662h560.59
		c26.85,0,48.62-21.23,48.62-47.41V47.42C657.83,21.25,636.07,0,609.21,0z M121.48,552.51V253.58h99.36v298.93H121.48z
		 M171.17,212.77L171.17,212.77h-0.65c-33.35,0-54.91-22.96-54.91-51.64c0-29.34,22.21-51.65,56.22-51.65
		c33.98,0,54.9,22.31,55.55,51.65C227.38,189.82,205.81,212.77,171.17,212.77z M579.11,552.51h-99.35v-159.9
		c0-40.19-14.39-67.6-50.33-67.6c-27.45,0-43.8,18.48-50.98,36.34c-2.62,6.37-3.27,15.32-3.27,24.24v166.92h-99.35l0,0.01
		c0,0,1.3-270.88,0.01-298.93h99.35v42.32c13.2-20.37,36.83-49.34,89.55-49.34c65.37,0,114.38,42.73,114.38,134.54V552.51z"/>
</g>
</svg>
