<?xml version="1.0" encoding="utf-8"?>
<!-- Generator: Adobe Illustrator 25.0.0, SVG Export Plug-In . SVG Version: 6.00 Build 0)  -->
<svg version="1.1" id="Calque_1" xmlns="http://www.w3.org/2000/svg" xmlns:xlink="http://www.w3.org/1999/xlink" x="0px" y="0px"
	 viewBox="0 0 600 1017.31" style="enable-background:new 0 0 600 1017.31;" xml:space="preserve">
<style type="text/css">
	.st0{fill:#FFFFFF;}
</style>
<g>
	<g>
		<g>
			<g>
				<path class="st0" d="M177.18,124.93c-0.63,9.42,0.21,18.83,0.99,28.21c0.79,9.54,1.19,18.99,0.68,28.56
					c-0.91,17.07-3.14,34.66,2.63,51.17c2.39,6.84,6.07,13.4,11.35,18.42c3.09,2.93,6.67,5.28,10.24,7.56
					c2.73,1.75,5.36,3.43,7.67,5.72c2.18,2.16,4.05,4.61,5.89,7.07c2.08,2.78,4.27,5.46,6.5,8.12c3.87,4.63,8.05,9.6,13.43,12.55
					c3.12,1.71,6.77,2.49,10.2,3.31c3.88,0.92,7.85,1.57,11.83,1.77c7.12,0.35,14.13-0.87,21.12-2.06
					c6.59-1.12,13.17-2.29,19.74-3.51c3.04-0.56,6.07-1.16,9.09-1.78c2.61-0.54,5.25-0.99,7.72-2.02
					c12.07-5.03,17.13-18.45,25.87-27.25c2.59-2.61,5.58-4.76,8.16-7.4c2.94-3.01,5.6-6.28,8.1-9.66c2.51-3.39,4.85-6.91,7.16-10.45
					c2.42-3.7,4.98-7.41,5.37-11.95c0.19-2.23-0.08-4.47-0.35-6.69c-0.28-2.39-0.57-4.77-0.86-7.16c-0.59-4.82-1.19-9.63-1.88-14.44
					c-1.36-9.47-2.67-18.95-3.95-28.43c-2.58-19.11-4.86-38.25-7.54-57.34c-0.66-4.69-1.33-9.38-1.93-14.08
					c-0.3-2.37-3.65-1.96-3.26,0.44c3,18.64,5.29,37.42,7.64,56.15c1.18,9.35,2.19,18.72,3.15,28.1c0.96,9.36,1.55,18.76,2.41,28.13
					c0.42,4.52,1.18,9.18,1.05,13.73c-0.12,4.19-2.31,7.42-4.49,10.84c-4.33,6.77-8.75,13.58-14.39,19.35
					c-2.49,2.55-5.36,4.65-7.86,7.17c-2.31,2.33-4.33,4.92-6.28,7.55c-3.59,4.84-6.84,10.02-11.19,14.24c-2,1.94-4.22,3.62-6.82,4.7
					c-2.21,0.92-4.86,1.33-7.27,1.84c-6.27,1.32-12.55,2.63-18.84,3.91c-5.78,1.18-11.56,2.44-17.38,3.46
					c-7.93,1.4-15.75,1-23.57-0.91c-3.2-0.78-6.6-1.47-9.46-3.17c-2.39-1.43-4.47-3.32-6.43-5.28c-4.62-4.64-8.45-9.97-12.95-14.72
					c-2.05-2.17-4.17-4.32-6.4-6.31c-2.37-2.11-5.02-3.68-7.75-5.28c-3.7-2.17-7.43-4.38-10.63-7.26c-2.76-2.48-5.12-5.37-7.07-8.53
					c-8.63-13.93-8.61-31.34-7.81-47.13c0.47-9.3,1.16-18.59,0.71-27.91c-0.44-9.27-1.69-18.47-2.22-27.74
					c-0.26-4.54-0.33-9.08-0.07-13.62C177.26,124.88,177.19,124.88,177.18,124.93L177.18,124.93z"/>
			</g>
		</g>
		<g>
			<g>
				<path class="st0" d="M175.84,44.94c4.63-6.3,12.27-10.19,20.11-9.97c7.94,0.22,14.85,4.35,19.55,10.62
					c4.3,5.74,7.17,12.41,11.63,18.04c4.87,6.14,11.74,9.83,19.39,11.25c10.05,1.86,20.15-0.07,30.02-2.06
					c2.36-0.47,1.37-4.12-1-3.62c-8.94,1.92-18.21,3.96-27.39,2.73c-3.96-0.53-7.88-1.69-11.38-3.65c-3.33-1.86-6.1-4.47-8.42-7.48
					c-4.45-5.76-7.44-12.52-12.19-18.06c-5.04-5.88-12.22-9.52-20.02-9.65c-8.55-0.15-16.71,4.13-21.66,11.06
					C173.91,44.97,175.26,45.74,175.84,44.94L175.84,44.94z"/>
			</g>
		</g>
		<g>
			<g>
				<path class="st0" d="M215.68,38.41c16.83,6.94,32.4,16.48,48.96,24c8.17,3.71,16.65,7.16,25.46,9.01
					c8.7,1.82,17.38,1.41,25.88-1.16c9.44-2.86,18.17-7.94,26.61-12.95c0.35-0.21,0.04-0.74-0.32-0.54
					c-7.67,4.26-15.34,8.61-23.66,11.49c-8.6,2.98-17.39,4.16-26.41,2.6c-8.97-1.55-17.62-4.92-25.92-8.58
					c-8.09-3.56-15.96-7.58-23.85-11.56c-8.77-4.43-17.58-8.8-26.72-12.43C215.64,38.27,215.61,38.38,215.68,38.41L215.68,38.41z"/>
			</g>
		</g>
		<g>
			<g>
				<path class="st0" d="M248.23,152.97c-2.2,4.64-4.39,9.27-6.59,13.91c-1.1,2.32-2.2,4.63-3.29,6.95
					c-0.99,2.11-2.16,4.21-2.91,6.42c-1.31,3.82,0.78,6.6,3.99,8.48c3.43,2.02,7.24,3.29,11.03,4.46c1.94,0.6,3.83,1.51,5.84,1.87
					c2.02,0.36,4.14,0.44,6.19,0.46c4.14,0.05,8.3-0.4,12.33-1.32c4.05-0.92,7.98-2.34,11.68-4.23c1.89-0.96,3.79-2.02,5.45-3.35
					c1.83-1.47,2.77-3.51,2.98-5.83c0.23-2.47-0.34-5.06-0.87-7.46c-0.55-2.49-1.34-4.92-2.11-7.35c-1.49-4.66-3.42-9.5-3.89-14.39
					c-0.28-2.96-4.56-3.06-4.69,0c-0.18,4.26,0.62,8.34,2,12.36c1.33,3.87,2.98,7.61,4.12,11.55c0.51,1.77,1.11,3.82,0.82,5.68
					c-0.27,1.74-1.87,2.62-3.23,3.48c-3.09,1.96-6.41,3.55-9.88,4.73c-3.54,1.21-7.22,2.04-10.94,2.4
					c-1.85,0.18-3.71,0.26-5.56,0.24c-1.85-0.02-3.7-0.28-5.54-0.21c-3.92,0.15-7.49-0.68-11.15-2.07c-3.2-1.21-8.22-3.12-8.08-7.29
					c0.08-2.58,1.88-5.22,2.95-7.49c1.13-2.39,2.25-4.8,3.37-7.2c2.24-4.8,4.49-9.6,6.73-14.4
					C249.2,152.91,248.46,152.47,248.23,152.97L248.23,152.97z"/>
			</g>
		</g>
		<g>
			<g>
				<path class="st0" d="M163.66,113.58c6.61-1.2,13.23-2.43,19.89-3.36c6.57-0.91,13.14-1.76,19.72-2.57
					c13.2-1.62,26.43-3.05,39.68-4.28c26.57-2.47,53.22-3.69,79.91-4.19c15.03-0.28,30.06-0.58,45.09-0.18
					c2.66,0.07,5.2-2.39,5.08-5.08c-0.12-2.67-2.23-5.18-5.08-5.08c-13.47,0.46-26.95,0.7-40.41,1.4
					c-13.3,0.69-26.6,1.58-39.88,2.66c-26.7,2.18-53.4,4.7-79.99,8.07c-7.6,0.96-15.2,1.99-22.79,3.08
					c-7.36,1.06-14.75,1.95-22.12,2.93c-1.99,0.26-3.6,1.6-3.3,3.81C159.75,112.9,161.66,113.94,163.66,113.58L163.66,113.58z"/>
			</g>
		</g>
		<g>
			<g>
				<path class="st0" d="M291.07,132.6c3.86-2.67,7.85-5.25,12.26-6.93c4.76-1.82,9.58-2.1,14.57-1.16
					c9.9,1.86,20.08,4.38,30.23,2.96c1.45-0.2,1.05-2.47-0.34-2.49c-4.11-0.06-8.2,0.24-12.31,0.08c-4.17-0.16-8.32-0.62-12.43-1.31
					c-3.88-0.65-7.84-1.44-11.79-1.22c-3.47,0.2-6.84,1.19-9.98,2.66c-3.8,1.78-7.27,4.19-10.64,6.67
					C290.19,132.18,290.6,132.91,291.07,132.6L291.07,132.6z"/>
			</g>
		</g>
		<g>
			<g>
				<path class="st0" d="M290.58,133.95c3.47,1.67,7.44,2.06,11.24,2.25c4.43,0.22,8.88,0.09,13.29-0.38
					c2.08-0.22,4.15-0.51,6.21-0.87c2.16-0.37,4.31-0.92,6.5-1.05c4.12-0.23,7.86,2.18,11.96,1.59c1.15-0.17,0.85-2.01-0.27-1.99
					c-3.92,0.04-7.5-1.91-11.46-1.55c-4.11,0.37-8.12,1.64-12.22,2.17c-4.16,0.54-8.36,0.77-12.56,0.7
					c-4.07-0.07-8.43-0.03-12.24-1.64C290.51,132.96,290.05,133.7,290.58,133.95L290.58,133.95z"/>
			</g>
		</g>
		<g>
			<g>
				<path class="st0" d="M310.26,123.34c-2.52,1.06-4.3,3.37-4.69,6.08c-0.2,1.38-0.03,2.85,0.59,4.1c0.69,1.4,2.03,2.25,3.49,2.68
					c2.69,0.79,5.83,0.18,7.8-1.89c2.06-2.17,2.58-5.68,0.93-8.25c-1.68-2.62-5.56-3.88-8.19-1.9c-0.44,0.33-0.68,0.83-0.45,1.37
					c0.2,0.45,0.78,0.84,1.29,0.63c1.67-0.66,3.49-0.27,4.64,0.95c0.52,0.55,0.87,1.46,0.9,2.25c0.04,0.92-0.14,1.91-0.63,2.76
					c-1.01,1.76-3.12,2.59-5.08,2.48c-1.08-0.06-2.26-0.46-2.99-1.29c-0.75-0.86-0.98-2.04-0.93-3.15c0.12-2.39,1.7-4.56,3.85-5.56
					C311.51,124.3,311,123.03,310.26,123.34L310.26,123.34z"/>
			</g>
		</g>
		<g>
			<g>
				<path class="st0" d="M188.62,138.62c9.64,1.22,19.33,1.89,29.04,2.23c7.41,0.26,15.7,0.63,21.65-4.57
					c1.21-1.06-0.57-2.84-1.77-1.77c-5.64,5.06-14.33,4.49-21.37,4.47c-9.19-0.03-18.38-0.48-27.55-1.11
					C188.14,137.84,188.16,138.56,188.62,138.62L188.62,138.62z"/>
			</g>
		</g>
		<g>
			<g>
				<path class="st0" d="M189.09,131.96c5.81,4.71,13.7,2.22,19.87-0.33c3.72-1.54,7.64-3.39,11.72-3.64
					c3.77-0.23,7.27,1.12,10.28,3.32c3.39,2.48,6.09,5.82,8.46,9.26c0.85,1.23,2.88,0.07,2.02-1.18
					c-3.97-5.82-9.2-11.96-16.44-13.45c-3.97-0.82-8.04-0.03-11.74,1.5c-3.72,1.54-7.21,3.64-11.07,4.83
					c-4.15,1.27-8.82,1.62-12.5-1.07C189.24,130.87,188.66,131.61,189.09,131.96L189.09,131.96z"/>
			</g>
		</g>
		<g>
			<g>
				<path class="st0" d="M215.7,128c-2.25,2.28-4.73,4.98-4.42,8.43c0.13,1.44,0.74,2.79,1.91,3.69c1.25,0.97,2.92,1.45,4.44,1.79
					c3.05,0.7,6.49,0.38,8.23-2.56c0.76-1.29,1.05-2.81,1.15-4.29c0.1-1.52,0.21-3.31-0.28-4.77c-0.67-1.99-2.46-3.23-4.51-3.4
					c-2.22-0.18-4.22,0.93-6.07,2.02c-1.16,0.69-0.4,2.75,0.95,2.25c1.34-0.5,2.73-1.04,4.19-1.02c0.82,0.01,1.96,0.32,2.49,0.97
					c0.55,0.68,0.77,2.21,0.86,3.17c0.1,1.16,0.11,2.35-0.22,3.48c-0.74,2.61-3.24,3.35-5.7,2.97c-2.42-0.38-5.54-1.16-6.13-3.91
					c-0.69-3.24,1.84-5.92,3.89-8.06C216.96,128.26,216.19,127.49,215.7,128L215.7,128z"/>
			</g>
		</g>
		<g>
			<g>
				<path class="st0" d="M254.2,140.01c-1.45-6.5,0.95-13.67,6.29-17.74c2.5-1.91,5.73-3.04,8.89-2.76c3.51,0.31,6.1,2.63,7.57,5.73
					c0.87,1.83,1.3,3.8,1.62,5.79c0.37,2.32,0.83,4.73,1.04,7.07c0.16,1.81,2.88,1.18,2.3-0.31c-0.83-2.13-0.97-4.58-1.39-6.82
					c-0.4-2.08-0.92-4.15-1.76-6.1c-1.47-3.41-4.17-6.24-7.91-7.02c-7.37-1.53-14.22,3.68-16.95,10.23
					c-1.62,3.88-1.93,8.19-0.79,12.25C253.31,141.01,254.36,140.72,254.2,140.01L254.2,140.01z"/>
			</g>
		</g>
		<g>
			<g>
				<path class="st0" d="M232.06,203.65c-4.6,2.01-8.79,4.69-12.62,7.93c-0.09,0.08-0.01,0.19,0.08,0.2
					c2.13,0.27,4.25,0.62,6.4,0.71c2.14,0.09,4.27,0.1,6.41,0.05c0.78-0.02,0.77-1.26,0-1.21c-2.13,0.15-4.27,0.22-6.41,0.22
					c-2.13,0-4.27,0.11-6.4-0.01c0.02,0.07,0.04,0.15,0.06,0.22c3.98-2.87,8.37-5.25,12.91-7.09
					C233.25,204.38,232.82,203.32,232.06,203.65L232.06,203.65z"/>
			</g>
		</g>
		<g>
			<g>
				<path class="st0" d="M228.63,235.82c2.06-2.21,4.47-3.76,7.05-5.28c2.64-1.55,5.43-2.94,8.29-4.04
					c5.67-2.18,11.53-2.99,17.57-2.39c11.05,1.1,21.28,6.03,32.14,8.05c5.85,1.09,12.33,1.62,18.01-0.49
					c1.96-0.73,1.22-3.63-0.87-3.16c-5.45,1.23-10.74,1.43-16.25,0.41c-5.51-1.01-10.86-2.75-16.22-4.35
					c-5.51-1.65-11.08-3.17-16.82-3.72c-5.97-0.58-11.92,0.27-17.53,2.4c-3.27,1.24-6.45,2.77-9.36,4.7
					c-2.74,1.81-5.15,4.11-7.24,6.65C226.72,235.44,227.86,236.64,228.63,235.82L228.63,235.82z"/>
			</g>
		</g>
		<g>
			<g>
				<path class="st0" d="M252.47,249.52c14.73-1.7,29.46-1.4,44.17,0.38c1.49,0.18,1.48-2.16,0-2.34
					c-14.62-1.77-29.58-1.43-44.17,0.48C251.54,248.16,251.51,249.63,252.47,249.52L252.47,249.52z"/>
			</g>
		</g>
		<g>
			<g>
				<path class="st0" d="M250.26,280.44c6.87-3.02,13.91-5.69,21.24-7.35c7.21-1.63,14.59-2.3,21.97-2.05
					c2.1,0.07,4.19,0.22,6.28,0.44c0.9,0.09,1.79,0.26,2.68,0.42c0.56,0.1,1.14,0.18,1.69,0.33c0.5,0.13,1.08,0.44,1.62,0.62
					c1.93,0.66,3.94-0.92,4.19-2.79c0.27-1.97-1.26-3.81-3.3-3.81c-0.56,0-1.15,0.22-1.69,0.18c-0.23-0.01-0.76-0.15-1.09-0.17
					c-1-0.08-2.01-0.12-3.01-0.18c-1.95-0.11-3.89-0.24-5.84-0.26c-3.9-0.05-7.81,0.17-11.69,0.63c-7.74,0.93-15.4,2.67-22.66,5.53
					c-4.15,1.63-8.09,3.55-11.82,5.99C247.26,279,248.61,281.16,250.26,280.44L250.26,280.44z"/>
			</g>
		</g>
		<g>
			<g>
				<path class="st0" d="M191.31,235.74c-2.04-7.42-0.65-15.91,3.38-22.43c2.08-3.37,4.96-6.16,6.93-9.61
					c2.08-3.64,2.89-7.57,2.78-11.73c-0.13-4.69-0.91-9.39-0.35-14.08c0.3-2.53-3.83-3.03-4.41-0.6c-1.02,4.27-0.46,8.42-0.07,12.73
					c0.36,3.96,0.9,8.48-1,12.13c-1.83,3.51-4.69,6.34-6.65,9.77c-1.97,3.46-3.12,7.26-3.55,11.21c-0.48,4.42,0.25,8.77,1.78,12.93
					C190.4,236.78,191.52,236.5,191.31,235.74L191.31,235.74z"/>
			</g>
		</g>
		<g>
			<g>
				<path class="st0" d="M319.97,198.5c1.11,7.15,3.25,14.07,6.28,20.64c1.49,3.23,3.21,6.36,5.14,9.35c1.93,2.99,3.96,6.4,7.1,8.22
					c1,0.57,2.62-0.41,2.12-1.63c-1.3-3.22-3.79-5.77-5.72-8.64c-1.95-2.89-3.7-5.92-5.24-9.06c-3.06-6.25-5.2-12.93-6.42-19.79
					C322.86,195.43,319.64,196.37,319.97,198.5L319.97,198.5z"/>
			</g>
		</g>
		<g>
			<g>
				<path class="st0" d="M199.6,258.62c8.58,12.77,12.59,28.28,11.44,43.61c-0.32,4.32-1.21,8.52-2.09,12.75
					c-0.51,2.47,2.94,3.42,3.77,1.04c2.62-7.54,3.11-16.1,2.55-24.01c-0.57-8.04-2.42-15.96-5.54-23.4
					c-1.78-4.24-3.94-8.29-6.51-12.1C201.71,254.29,198.09,256.38,199.6,258.62L199.6,258.62z"/>
			</g>
		</g>
		<g>
			<g>
				<path class="st0" d="M354.79,246.33c0.06-0.52,0.36-0.92,0.86-1.06c-0.65-0.65-1.3-1.3-1.95-1.95
					c-0.48,2.66-1.13,5.28-1.53,7.95c-0.42,2.72-0.79,5.45-1.12,8.18c-0.65,5.32-1.06,10.68-1.24,16.04
					c-0.18,5.26-0.46,10.65,0.35,15.87c0.79,5.09,3.22,9.71,5.75,14.13c1.48,2.58,3.06,5.11,4.6,7.66c0.81,1.35,1.58,2.71,2.35,4.09
					c0.82,1.48,1.54,2.79,3,3.72c1.32,0.84,3.1-0.26,3.09-1.77c-0.03-2.69-1.98-5.07-3.19-7.38c-1.23-2.35-2.41-4.72-3.62-7.08
					c-2.14-4.2-4.77-8.27-5.98-12.87c-1.23-4.7-0.93-9.82-0.89-14.63c0.04-5.27,0.22-10.53,0.43-15.8c0.12-2.95,0.28-5.91,0.5-8.86
					c0.22-2.94,0.29-5.89,0.61-8.82c0.13-1.14-1.46-2.05-2.38-1.37c-1.43,1.06-2.13,2.46-1.79,4.25
					C352.89,247.93,354.66,247.46,354.79,246.33L354.79,246.33z"/>
			</g>
		</g>
		<g>
			<g>
				<path class="st0" d="M259.71,307.16c-1.09,5.57-0.66,11.27,0.8,16.74c1.33,5,3.31,10.31,6.74,14.26
					c3.25,3.75,8.18,5.91,13.11,4.62c5.05-1.32,8.69-5.43,11.04-9.89c1.43-2.72,2.59-5.61,3.56-8.52c1.03-3.1,1.93-6.18,1.92-9.46
					c0-1.13-1.52-1.24-1.88-0.25c-0.87,2.38-1.39,4.81-2.12,7.24c-0.73,2.43-1.6,4.83-2.64,7.14c-1.84,4.12-4.3,8.28-8.44,10.43
					c-4.18,2.17-8.72,1.06-11.99-2.17c-3.4-3.36-5.25-8.23-6.61-12.72c-1.64-5.43-2.31-11.18-1.24-16.79
					C262.25,306.31,259.99,305.68,259.71,307.16L259.71,307.16z"/>
			</g>
		</g>
		<g>
			<g>
				<path class="st0" d="M176.75,182.46c-4.09-0.67-8.25-1.41-12.17-2.8c-3.12-1.1-6.25-2.7-7.72-5.82
					c-1.93-4.08,0.61-8.27,0.42-12.46c-0.2-4.38-3.62-7-6.5-9.86c-1.71-1.7-3.73-3.33-5.15-5.29c-1.55-2.13-1.12-4.74,1.29-5.99
					c0.58-0.3,0.18-1.28-0.45-1.07c-1.64,0.55-2.83,1.89-3.18,3.6c-0.38,1.87,0.46,3.58,1.62,5c1.52,1.87,3.34,3.54,5.02,5.28
					c1.66,1.72,3.83,3.51,4.75,5.78c0.96,2.37,0.2,5.1-0.22,7.51c-0.38,2.19-0.66,4.48-0.06,6.65c0.96,3.47,4.11,5.55,7.31,6.76
					c1.94,0.73,3.95,1.14,5.97,1.56c2.97,0.63,5.89,1.29,8.81,2.12C177.12,183.62,177.39,182.57,176.75,182.46L176.75,182.46z"/>
			</g>
		</g>
		<g>
			<g>
				<path class="st0" d="M152.85,136.48c-3.11-1.33-6.43-2.93-8.65-5.56c-2.34-2.76-2.09-5.99-0.2-8.92
					c1.94-3.01,4.63-5.46,5.75-8.95c1.27-3.92,0.51-8.11-0.72-11.93c-2.38-7.41-8.27-15.42-5.94-23.57c0.54-1.87,1.6-3.78,3.24-4.9
					c1.65-1.12,3.73-1.58,5.55-2.37c3.5-1.52,6.74-3.55,9.75-5.88c7.14-5.53,13.04-12.28,18.8-19.19c0.63-0.75-0.46-1.83-1.08-1.08
					c-5.24,6.4-10.58,12.94-17.09,18.12c-3.27,2.61-6.98,4.82-10.86,6.38c-1.86,0.75-3.96,1.14-5.68,2.19
					c-1.61,0.98-2.84,2.54-3.64,4.23c-3.73,7.83,1.13,16.22,4.01,23.43c1.64,4.1,3.08,8.79,1.86,13.2
					c-1.05,3.82-4.23,6.31-6.28,9.55c-2.13,3.38-2.17,7.37,0.27,10.6c2.4,3.18,6.14,5.12,9.73,6.66
					C153.04,139.09,154.23,137.07,152.85,136.48L152.85,136.48z"/>
			</g>
		</g>
		<g>
			<g>
				<path class="st0" d="M215.62,28.09c11.51-10.4,29.77-12.42,43.22-4.61c7.77,4.52,13.82,11.43,21.5,16.13
					c7.23,4.43,15.32,7.53,23.67,9.02c9.45,1.68,19.11,1.48,28.43-0.82c1.45-0.36,0.83-2.54-0.61-2.22
					c-16.89,3.69-35.17,0.78-50.04-8.05c-7.84-4.65-14.02-11.62-21.98-16.07c-6.68-3.74-14.49-5.22-22.08-4.5
					c-8.56,0.8-16.79,4.25-23.08,10.16C214.01,27.73,214.97,28.68,215.62,28.09L215.62,28.09z"/>
			</g>
		</g>
		<g>
			<g>
				<path class="st0" d="M269.15,18.54c9.64-6.42,22.37-7.48,33.04-3.07c5.96,2.46,10.41,6.91,15.24,11.02
					c4.84,4.12,10.27,7.21,16.19,9.51c6.74,2.62,13.8,4.26,20.87,5.71c1.47,0.3,2.1-1.9,0.62-2.26c-6.38-1.58-12.83-3.03-19.03-5.26
					c-6.29-2.26-12.1-5.42-17.18-9.79c-4.86-4.18-9.4-8.55-15.38-11.1c-5.36-2.29-11.25-3.3-17.07-2.94
					c-6.58,0.4-13.02,2.46-18.49,6.17C266.73,17.35,267.89,19.38,269.15,18.54L269.15,18.54z"/>
			</g>
		</g>
		<g>
			<g>
				<path class="st0" d="M356.45,65.58c3.65,0.54,7.54,1.15,10.7,3.18c3.91,2.52,4.96,7.21,5.13,11.59
					c0.19,4.67-0.66,9.29-1.32,13.89c-0.64,4.44-1.2,9.19-0.05,13.59c0.19,0.74,1.35,0.59,1.34-0.18
					c-0.04-3.95,0.24-7.77,0.77-11.68c0.52-3.8,1.21-7.59,1.48-11.42c0.47-6.88-0.53-14.83-7.26-18.36
					c-3.15-1.65-6.71-2.28-10.19-2.79C355.63,63.18,355.01,65.36,356.45,65.58L356.45,65.58z"/>
			</g>
		</g>
		<g>
			<g>
				<path class="st0" d="M372.43,119.33c0.45,1.93,0.89,3.85,1.42,5.75c0.12,0.44,0.76,0.25,0.68-0.19
					c-0.36-1.95-0.82-3.87-1.27-5.8C373.14,118.56,372.31,118.79,372.43,119.33L372.43,119.33z"/>
			</g>
		</g>
		<g>
			<g>
				<path class="st0" d="M165.63,184.12c-0.2,3.74-0.32,7.48-0.37,11.23c-0.05,3.67,0.14,7.33,0.17,10.99
					c0.01,1.44-0.09,3,0.61,4.31c0.56,1.04,1.54,1.79,2.6,2.27c2.94,1.35,6.19,0.13,9.27,0.37c0.88,0.07,1.06-1.33,0.21-1.53
					c-2.77-0.66-5.63,0.21-8.38-0.6c-1.36-0.4-2.24-1.27-2.42-2.71c-0.2-1.57-0.15-3.22-0.13-4.79c0.06-6.51,0.25-13.03,0.67-19.53
					C167.95,182.7,165.71,182.69,165.63,184.12L165.63,184.12z"/>
			</g>
		</g>
		<g>
			<g>
				<path class="st0" d="M368.34,189.38c3.37,0.08,6.75,0.24,10.12,0.23c1.09,0,2.25-0.16,2.88-1.17c0.66-1.06,0.36-2.41,0.19-3.56
					c-1-6.84-2.03-13.65-2.83-20.51c-0.78-6.74-2.24-13.25-1.14-20.05c0.93-5.77,2.8-11.53,2.04-17.43
					c-0.6-4.63-3.25-11.5-8.67-12.04c-0.93-0.09-1.52,1.31-0.79,1.9c1.62,1.32,3.37,2.32,4.57,4.1c1.19,1.77,1.91,3.78,2.31,5.87
					c1.01,5.28-0.55,10.68-1.43,15.86c-1,5.88-0.61,11.57,0.26,17.44c0.9,6.08,1.96,12.13,2.78,18.22c0.22,1.65,0.47,3.29,0.7,4.94
					c0.13,0.92,0.28,1.84,0.39,2.76c0.04,0.3,0.15,0.73,0.07,1.03c-0.2,0.7-0.74,0.69-1.34,0.71c-3.36,0.1-6.75-0.09-10.12-0.13
					C367.16,187.53,367.16,189.35,368.34,189.38L368.34,189.38z"/>
			</g>
		</g>
		<g>
			<g>
				<path class="st0" d="M212.54,59.16c-4.01-6.31-11.21-10.58-18.76-10.43c-8.2,0.17-15.55,5.12-21.29,10.6
					c-10.85,10.38-17.99,24.87-19.24,39.86c-0.71,8.47,0.64,16.9,4.37,24.57c0.32,0.67,1.26,0.08,0.98-0.57
					c-5.68-13.23-4.99-28.37,0.31-41.59c2.7-6.72,6.58-13,11.4-18.4c5.09-5.71,11.46-11.03,19.06-12.81
					c8.52-1.99,17.69,1.71,21.82,9.56C211.66,60.84,213.09,60.01,212.54,59.16L212.54,59.16z"/>
			</g>
		</g>
		<g>
			<g>
				<path class="st0" d="M148.73,106.95c-1.54-7.15-3.22-14.26-4.23-21.51c-0.89-6.36-0.79-12.7,2.04-18.58
					c5.22-10.83,15.96-17.38,27.39-19.94c7.38-1.65,14.77-1.54,22.27-1.56c1.51,0,1.45-2.17,0-2.3c-6.91-0.65-14.15-0.18-20.96,1.15
					c-6.42,1.25-12.74,3.55-18.14,7.29c-4.72,3.27-8.88,7.55-11.57,12.66c-3,5.69-3.83,11.85-3.09,18.2
					c0.47,4.06,1.29,8.1,2.17,12.09c0.95,4.3,2.03,8.54,3.49,12.69C148.23,107.53,148.82,107.37,148.73,106.95L148.73,106.95z"/>
			</g>
		</g>
		<g>
			<g>
				<path class="st0" d="M275.98,89.36c8.61,1.34,17.15,1.31,25.81,0.49c8.61-0.82,17.15-2.74,25.24-5.82
					c2.3-0.87,4.55-1.89,6.92-2.57c2.47-0.71,5.19-1.42,7.39-2.79c-2.01-0.82-4.02-1.63-6.03-2.45c2.4,10.07,8.37,18.76,16.54,25.02
					c1.74,1.34,4.75,0.33,5.72-1.5c1.16-2.2,0.37-4.3-1.5-5.72c0.35,0.26,0.14,0.11-0.08-0.07c-0.2-0.16-0.41-0.33-0.61-0.49
					c-0.45-0.38-0.89-0.76-1.33-1.16c-0.77-0.7-1.51-1.44-2.23-2.2c-0.76-0.81-1.48-1.65-2.17-2.52c0.27,0.34,0.1,0.13-0.07-0.09
					c-0.15-0.21-0.31-0.42-0.46-0.63c-0.34-0.48-0.67-0.96-0.99-1.46c-1.17-1.81-2.19-3.71-3.07-5.68c-0.12-0.26-0.2-0.5-0.04-0.1
					c-0.1-0.24-0.19-0.48-0.29-0.73c-0.19-0.49-0.36-0.98-0.53-1.47c-0.38-1.11-0.7-2.24-0.98-3.39c-0.62-2.52-3.82-3.84-6.03-2.45
					c-1.89,1.19-3.66,2.83-5.34,4.3c-1.46,1.28-3.12,2.29-4.86,3.16c-3.72,1.85-7.56,3.43-11.5,4.75
					c-7.96,2.66-16.15,4.15-24.55,4.32c-4.81,0.1-9.62-0.18-14.38-0.85C275.19,87.06,274.58,89.15,275.98,89.36L275.98,89.36z"/>
			</g>
		</g>
		<g>
			<g>
				<path class="st0" d="M176.42,87.17c-4.41,5.44,5.7,8.21,9.17,9.37c5.12,1.71,10.31,3.11,15.59,4.22
					c10.77,2.27,21.81,3.47,32.82,3.49c3.03,0.01,6.06-0.04,9.09-0.1c1.65-0.03,3.3,0.04,4.95,0.14c2.29,0.15,3.28,0.65,5.62,0.08
					c1.8-0.44,3.31-2.37,3.23-4.24c-0.09-2.09-1.34-3.49-3.23-4.24c-1.47-0.58-3.09-0.37-4.63-0.26c-1.32,0.09-2.64,0.23-3.96,0.37
					c-2.66,0.29-5.35,0.49-8.02,0.61c-5.06,0.21-10.16,0.08-15.21-0.25c-9.93-0.65-19.59-2.36-29.27-4.84
					c-2.72-0.7-5.43-1.47-8.11-2.31c-1.08-0.34-2.63-0.68-3.46-1.01c-0.44-0.17-0.46-0.27-1.02-0.63c-0.32-0.2-0.48-0.36-0.93-0.45
					c-0.67-0.15,0.6,0.59,0.15,0.06C178.54,86.43,177.05,86.39,176.42,87.17L176.42,87.17z"/>
			</g>
		</g>
	</g>
	<g>
		<g>
			<g>
				<path class="st0" d="M373.71,101.7c-0.15-1.48-0.44-2.86-1.13-4.2c-0.42-0.81-1.04-1.84-1.87-2.35c-0.1-0.06-0.18-0.1-0.26-0.15
					c0,0-0.01-0.01-0.01-0.01c-0.22-0.25-0.47-0.47-0.75-0.65c-0.94-0.61-1.05-0.47-2.13-0.33c-0.02,0-0.05,0.02-0.07,0.03
					c-0.31,0.01-0.64,0.06-1.01,0.14c-0.2,0.04-0.67,0.63-0.59,0.61c0.38-0.08,0.76-0.16,1.14-0.23c0.01,0,0.02,0.01,0.02,0.01
					c-0.03,0.13,0.02,0.22,0.19,0.17c0.03-0.01,0.05-0.01,0.08-0.01c0.02,0.01,0.04,0.02,0.05,0.03c-0.22,0.03-0.48,0.1-0.86,0.17
					c-0.22,0.05-0.31,0.28-0.29,0.5c-0.58,0.01-1.17,0.12-1.75,0.31c-0.4,0.13-0.22,0.51-0.03,0.7c0.25,0.25,1.16,0.19,1.59,0.11
					l0.39,0.21c-0.06,0.02-0.12,0.04-0.19,0.06c-0.45,0.15-0.67,1.28-0.71,1.67c-0.01,0.11-0.07,1.11,0.43,0.77
					c0.75,0.67,1.5,1.33,2.24,2l0.16,1.15c0.11,2,0,4.08-0.03,6.08c-0.1,6.77-0.46,13.62-1.54,20.31
					c-1.06,6.55-2.98,13.19-6.29,18.98c-4,4.43-7.99,8.86-11.99,13.29c-1.24,0.79-2.48,1.57-3.72,2.36
					c-3.22,1.83-6.66,3.17-10.23,4.14c-1.41,0.47-2.85,0.78-4.33,0.93c-2.88,0.6-5.78,0.6-8.72,0c-0.59,0.06-1.17,0.09-1.76,0.1
					c-5.91-0.84-12.07-3.01-17.24-6.29c-1.46-0.99-2.86-2.06-4.19-3.21c-1.16-1.11-2.31-2.23-3.47-3.34
					c-1.92-2.06-3.68-4.28-5.23-6.67c-0.4-0.62-0.77-1.26-1.15-1.89c-0.17-0.47-0.34-0.94-0.49-1.43c-0.33-0.37-0.63-0.76-0.94-1.14
					c-7.23-13.77-8.82-30.04-10.09-45.26c-0.02-0.24-0.13-0.67-0.14-0.83c1.28,15.37,2.93,31.09,9.52,45.22
					c-0.12-0.16-0.25-0.31-0.37-0.47c-1.44-2.86-2.64-5.82-3.66-8.86c-0.32-1-0.63-2.01-0.91-3.03c-2.79-10.27-3.77-21.1-4.67-31.6
					c0,0.05-0.03,0.1-0.09,0.15c-0.03-0.36-0.06-0.73-0.09-1.09c0,0.04-0.01,0.13-0.03,0.23c0-0.03-0.01-0.07-0.01-0.1
					c-0.01-0.12-0.11-0.23-0.21-0.34c-0.02-0.19-0.03-0.38-0.05-0.57c-0.01-0.08-0.25-0.13-0.48-0.17
					c-0.01-0.06-0.01-0.12-0.02-0.17c0-0.02-0.89,0.05-0.88,0.06c0.02,0.2,0.04,0.4,0.05,0.6c0,0-0.01,0-0.01,0
					c0.01,0.09,0.02,0.18,0.02,0.27c-0.01,0.01-0.02,0.02-0.03,0.03c-0.03-0.29-0.05-0.58-0.08-0.87c0.02,0.17-0.69,0.41-0.67,0.58
					c0.01,0.1,0.02,0.2,0.03,0.3c-0.08,0.11-0.14,0.22-0.13,0.32c0.02,0.22,0.04,0.45,0.06,0.67c-0.08-0.14-0.15-0.27-0.17-0.41
					c1.65,17.4,3.33,36.19,13.08,51.29c4.9,7.59,11.95,13.88,20.32,17.37c10.41,4.89,22.65,5.3,33.47,1.5
					c-0.83,0.28-1.67,0.53-2.51,0.75c2.79-0.79,5.5-1.86,8.1-3.18c-0.65,0.35-1.32,0.67-1.98,0.98c5.43-2.46,10.45-5.94,14.52-10.29
					c2.05-2.19,3.81-4.56,5.33-7.06c0.22-0.36,0.43-0.73,0.65-1.1c1.1-1.76,2.09-3.61,2.97-5.54c4.5-9.83,5.77-20.72,5.96-31.43
					C373.92,110.7,373.9,103.59,373.71,101.7z M337.39,169.94c-0.22,0.05-0.45,0.11-0.67,0.16c-0.35,0.08-0.7,0.14-1.05,0.21
					c-0.62,0.11-1.25,0.22-1.88,0.29c-0.16,0.04-0.32,0.08-0.48,0.12c-0.75,0.11-1.5,0.21-2.25,0.28c0.57-0.08,1.15-0.18,1.72-0.28
					c1.63-0.19,3.25-0.47,4.83-0.86c1.08-0.27,2.15-0.59,3.21-0.95c-0.55,0.21-1.12,0.38-1.68,0.56
					C338.55,169.63,337.97,169.79,337.39,169.94z M317.01,169.99c-0.02,0-0.04-0.01-0.06-0.02c0.13,0.02,0.25,0.05,0.38,0.07
					c-0.07-0.01-0.15-0.02-0.22-0.04C317.08,170,317.04,170,317.01,169.99z M315.09,168c-0.31-0.08-0.63-0.16-0.94-0.24
					c0.08,0.02,0.17,0.04,0.25,0.06C314.63,167.88,314.86,167.94,315.09,168z M284.25,145.04c0.03,0.07,0.06,0.14,0.1,0.21
					c0.5,0.99,1.03,1.95,1.58,2.9c-1.53-2.21-2.72-4.6-3.58-7.15C282.94,142.36,283.57,143.71,284.25,145.04z M291.34,155.75
					c-1.11-1.16-2.1-2.42-2.96-3.78C289.3,153.28,290.3,154.54,291.34,155.75z M348.72,165.27c1.41-0.84,2.77-1.75,4.08-2.74
					c0.93-0.66,1.82-1.34,2.69-2.06c-2.93,2.63-6.2,4.82-9.84,6.54C346.69,166.46,347.72,165.89,348.72,165.27z M281.18,138.06
					c-0.87-2.08-1.56-4.21-2.07-6.41C279.72,133.83,280.41,135.97,281.18,138.06z M372.86,121.22c0.15-1.89,0.25-3.8,0.32-5.7
					c0.15-2.63,0.2-5.26,0.16-7.9c-0.03-1.85,0.09-5.46-0.75-8.17c-0.08-0.47-0.19-0.94-0.33-1.4c-0.06-0.17-0.13-0.35-0.19-0.53
					c0.52,0.64,0.83,1.41,0.92,2.34C373.76,106.96,373.71,114.07,372.86,121.22z"/>
				<path class="st0" d="M340.86,169.47c1.22-0.41,2.42-0.9,3.6-1.45c-0.28,0.13-0.56,0.26-0.84,0.39
					C342.71,168.8,341.79,169.15,340.86,169.47z"/>
			</g>
		</g>
	</g>
	<g>
		<g>
			<path class="st0" d="M250.42,164.05c0.21-0.29,0.42-0.58,0.63-0.88c0.65-0.93,1.25-1.89,1.78-2.89
				c4.95-8.67,5.52-19.63,5.3-29.36c-0.12-5.01-0.61-9.87-1.46-14.79c-1.07-6.13-2.78-11.92-4.75-17.86
				c-0.08-0.24,0.01,0.59,0.05,0.7c3.32,8.87,5.29,18.08,5.9,27.63c-0.01,0.57-0.02,1.15-0.02,1.72c-0.15-2.61-0.41-5.23-0.75-7.77
				c-0.02-0.15-0.05-0.31-0.07-0.46c-0.29-2.5-0.7-4.98-1.25-7.45c-0.86-4.37-2.12-8.61-3.73-12.76c-0.14-0.41-0.28-0.81-0.43-1.22
				c-0.02-0.05-0.03-0.09-0.05-0.14c0,0,0,0,0,0.01c-0.09-0.24-0.17-0.48-0.26-0.72c-0.03-0.1-0.22-0.16-0.41-0.19
				c-0.02-0.06-0.04-0.12-0.06-0.18c-0.05-0.14-0.89,0.05-0.89,0.06c0.11,0.31,0.21,0.62,0.33,0.92c-0.02,0.01-0.04,0.02-0.05,0.03
				c-0.1-0.31-0.2-0.63-0.31-0.94c0.01,0.04-0.72,0.42-0.67,0.58c0.02,0.07,0.04,0.14,0.07,0.2c-0.09,0.16-0.17,0.32-0.15,0.4
				c0.62,1.86,1.23,3.73,1.81,5.6c0.54,1.76,1.05,3.52,1.52,5.3c0.26,1.01,0.51,2.02,0.73,3.04c0.2,0.93,0.37,1.86,0.54,2.8
				c-1.09-5.33-2.64-10.49-4.39-15.74c-0.04-0.11-0.4-0.86-0.32-0.63c2.53,6.8,4.29,13.81,5.28,21.03c0.54,3.6,0.8,7.22,0.81,10.86
				c0.15,5.79-0.1,11.54-1.15,17.24c-0.21,1.15-0.46,2.32-0.75,3.48c-0.68,1.96-1.69,3.81-3.04,5.55c-0.31,1.64-0.84,3.12-1.56,4.45
				c-1.34,1.83-2.85,3.47-4.49,4.95c-0.89,0.68-1.82,1.29-2.81,1.84c-2.05,1.35-4.17,2.59-6.34,3.74c-2.7,1.35-5.47,2.55-8.29,3.68
				c-3.15,1.27-6.28,2.36-9.53,3.16c-3.16,0.73-6.38,1.14-9.65,1.08c-2.67-0.29-5.28-1.23-7.84-2.83c-3.18-0.08-6.07-0.77-8.69-2.04
				c-0.69-0.4-1.37-0.81-2.04-1.23c-0.15-0.1-0.31-0.2-0.46-0.3c-0.33-0.22-0.67-0.44-1-0.66c-0.29-0.19-0.58-0.39-0.87-0.59
				c-3.28-2.34-6.43-4.97-9.38-7.7c-1.21-1.12-2.32-2.28-3.31-3.52c-0.32-0.56-0.6-1.15-0.85-1.77c-0.7-0.72-1.28-1.49-1.77-2.31
				c-0.27-0.54-0.52-1.1-0.74-1.68c-0.21-0.56-0.41-1.13-0.59-1.7c-0.43-1.46-0.83-2.94-1.16-4.43
				c-3.03-12.55-5.99-25.11-8.87-37.69c0.02,0.08,0.01,0.16,0,0.25c-0.01-0.03-0.01-0.06-0.02-0.09c-0.02-0.07-0.05-0.13-0.09-0.19
				c-0.06-0.24-0.11-0.48-0.17-0.72c-0.04-0.16-0.81-0.14-0.84-0.28c0.04,0.17,0.08,0.35,0.12,0.52c-0.26,0.03-0.6,0.08-0.6,0.07
				c0.02,0.08,0.04,0.17,0.06,0.25c-0.17,0.16-0.41,0.35-0.38,0.48c0.06,0.25,0.12,0.51,0.18,0.76c-0.02-0.01-0.04-0.03-0.07-0.04
				c-0.09-0.36-0.17-0.72-0.26-1.08c0.03,0.13-0.06,0.61-0.01,0.84c0.14,0.56,0.27,1.12,0.41,1.67c1.31,5.45,2.59,10.91,3.87,16.38
				c-0.06,0.09-0.1,0.18-0.09,0.25c1.54,6.75,3.14,13.48,4.8,20.21c0.32,1.38,0.7,2.75,1.13,4.1c0.56,1.68,1.27,3.32,2.17,4.84
				c0.26,0.52,0.55,1.02,0.86,1.5c0.97,1.45,2.1,2.75,3.31,3.99c1.89,2.25,4.12,4.24,6.68,5.97c1.64,1.34,3.31,2.63,5.06,3.84
				c0.42,0.29,0.84,0.57,1.26,0.85c0.03,0.13,0.06,0.25,0.14,0.3c1.96,1.13,3.9,2.17,5.88,3.07c1.16,0.59,2.35,1.14,3.58,1.62
				c3.5,1.36,7.28,1.91,11.02,1.95c4.48,0.05,8.83-0.71,13.13-1.97c0.95-0.28,1.9-0.59,2.84-0.91c5.33-1.72,10.72-4.23,15.56-7.01
				c0.06-0.04,0.13-0.07,0.19-0.11c2.69-1.5,5.26-3.18,7.54-5.29c1-0.93,1.91-1.93,2.74-2.99
				C250.12,164.47,250.26,164.26,250.42,164.05z M219.51,180.84c0.77-0.2,1.53-0.42,2.28-0.65c-0.39,0.13-0.79,0.25-1.18,0.37
				C220.24,180.66,219.88,180.75,219.51,180.84z M223.67,179.56c-0.59,0.21-1.19,0.41-1.79,0.6
				C222.48,179.98,223.07,179.77,223.67,179.56z M244.08,169.82c-1.05,0.89-2.2,1.66-3.45,2.3
				C241.82,171.41,242.97,170.64,244.08,169.82z M199.27,179.11c-0.17-0.04-0.35-0.08-0.52-0.11c-0.14-0.04-0.29-0.09-0.43-0.14
				c-0.33-0.12-0.66-0.26-0.98-0.39c0,0,0.01,0,0.01,0C197.98,178.7,198.62,178.91,199.27,179.11z M257.66,141.06
				c0,0.06-0.01,0.11-0.02,0.17c0.01-0.1,0.01-0.19,0.02-0.29C257.66,140.98,257.66,141.02,257.66,141.06z M253.9,116.3
				c-0.05-0.25-0.09-0.49-0.14-0.74C253.81,115.81,253.86,116.05,253.9,116.3z"/>
		</g>
	</g>
	<g>
		<g>
			<g>
				<path class="st0" d="M352.3,175.63c0.03,0,0.08,0.88,0.15,0.88C352.42,176.51,352.37,175.63,352.3,175.63z"/>
				<path class="st0" d="M355.57,207.24c0.03-0.01,0.05-0.03,0.08-0.04c0.44-0.06,0.88-0.11,1.32-0.17
					c0.05-0.01,0.13-0.86,0.08-0.88c-0.07-0.04-0.14-0.06-0.21-0.1c-0.1-0.18-0.21-0.38-0.29-0.41c-1.97-0.99-4.05-1.67-6.22-2.05
					c-2.06-0.35-4.12-0.59-6.2-0.73c0.04-0.05,0.08-0.1,0.11-0.16c4.23,0.36,7.71,0.85,11.78,2.53c0.23,0.09,0.66,0.2,0.8,0.25
					c-1.35-0.56-2.48-1.1-3.8-1.51c-2.67-0.83-5.4-1.18-8.18-1.42c-0.16-0.01-0.31-0.03-0.46-0.04c1.37-1.87,2.74-3.73,4.1-5.6
					c-0.01,0-0.02,0-0.02,0c-0.32-0.05-0.61-0.09-0.9-0.13c0.13-0.04,0.26-0.08,0.39-0.12c-0.01-0.01-0.03-0.02-0.04-0.03
					c0.4-0.12,0.8-0.25,1.19-0.37c0.08-0.02,0.1-0.88,0.08-0.88c-0.05-0.01-0.11-0.02-0.16-0.03c-0.11-0.21-0.26-0.47-0.34-0.48
					c-0.03-0.01-0.07-0.01-0.1-0.02c0.13-0.04,0.26-0.08,0.39-0.12c-0.05,0.02-0.13-0.01-0.22-0.04c0.06,0.01,0.13,0.02,0.19,0.03
					c-0.19-0.07-0.39-0.13-0.58-0.2c-0.09-0.04-0.17-0.07-0.22-0.08c-1.96-0.38-3.93-0.68-5.91-0.89c1.06-0.36,2.12-0.73,3.18-1.09
					c1.33-0.2,2.64-0.46,3.95-0.8c1.73-0.41,1.26-0.27,2.54-0.75c0.4-0.13,0.8-0.27,1.18-0.43c0.01,0,0.02-0.01,0.03-0.01
					c0.02-0.01,0.03-0.01,0.05-0.02c0.23-0.1,0.46-0.2,0.68-0.3c0.03-0.01,0.05-0.03,0.08-0.04c-0.01,0-0.02,0.01-0.03,0.01
					c0.69-0.34,1.36-0.72,2.01-1.16c0.25-0.14,0.36-0.51,0.6-0.65c-0.39,0.22-0.77,0.44-1.15,0.64c-0.06-0.01-0.12-0.03-0.19-0.05
					c0.09-0.05,0.18-0.12,0.27-0.17c0.44-0.24,0.87-0.5,1.28-0.79c0.09-0.05-0.23-0.83-0.15-0.88c-0.15,0.1-0.31,0.19-0.46,0.29
					c-0.11-0.19-0.26-0.42-0.34-0.47c0.09-0.06,0.17-0.1,0.26-0.16c-0.01,0.01-0.05-0.01-0.07-0.01c-0.1-0.03-0.2-0.07-0.3-0.1
					c-0.11-0.05-0.21-0.09-0.3-0.12c0.07-0.05,0.14-0.08,0.21-0.13c-0.22,0.13-0.65-0.07-0.88,0.06c-0.02,0.02-0.05,0.03-0.07,0.05
					c-6.86,0.32-13.71,0.47-20.57,0.46c0.28,0,0.56,0.28,0.84,0.28c6.41-0.01,12.81-0.16,19.22-0.41c-0.07,0.04-0.13,0.08-0.2,0.12
					c-5.94,0.14-11.88,0.28-17.82,0.42c-0.75,0.04-1.5,0.02-2.25-0.06c-1.47-0.12-2.52-0.41-3.65-1.23
					c1.07-1.56,2.31-2.49,4.14-3.35c1.57-0.74,3.17-1.39,4.79-1.99c0.25-0.06,0.61,0.18,0.86,0.1c2.02-0.71,4.06-1.34,6.11-1.91
					c-0.06,0.07-0.11,0.13-0.18,0.15c1.85-0.47,3.7-0.93,5.55-1.4c-0.13,0.09-0.27,0.17-0.4,0.17c0.14,0,0.28-0.09,0.41-0.18
					c0.05-0.01,0.09-0.02,0.14-0.03c0.06-0.01,0.11-0.06,0.16-0.11c0.03-0.01,0.07-0.03,0.1-0.03c-0.03,0-0.07,0.02-0.1,0.03
					c0.16-0.18,0.27-0.49,0.44-0.54c-1.19,0.3-2.38,0.6-3.57,0.9c0.66-0.17,1.31-0.34,1.97-0.5c-0.03,0.01-0.08-0.03-0.14-0.1
					c0.49-0.13,0.98-0.25,1.47-0.38c0.13-0.03,0.03-0.87,0.08-0.88c-0.04,0.01-0.08,0.02-0.12,0.03c-0.11-0.22-0.31-0.64-0.41-0.61
					c-0.14,0.04-0.28,0.08-0.43,0.11c-0.12,0-0.26-0.01-0.4,0c0.35-0.1,0.71-0.19,1.06-0.29c-0.19,0.05-0.52-0.26-0.77-0.27
					l0.25-0.07c-0.13,0.03-0.61-0.02-0.84,0.04c-1.89,0.51-3.79,1.02-5.68,1.53c0.28-0.07,0.6,0.01,0.89-0.06
					c0.61-0.16,1.23-0.33,1.84-0.49c-5.09,1.44-10.09,3.08-14.89,5.35c0.11-0.05,0.3,0.06,0.48,0.16c-1.09,0.51-2.14,1.11-3.04,1.89
					c-0.21,0.18-0.41,0.37-0.61,0.57c-0.04,0.04-0.09,0.08-0.13,0.13c-0.52,0.42-0.8,0.8-0.88,1.15c-0.13,0.19-0.25,0.39-0.38,0.6
					c-0.05,0.08-0.07,0.56-0.03,0.78c0,0,0,0,0,0c0,0,0,0,0,0c0.01,0.05,0.02,0.09,0.04,0.1c0.19,0.17,0.38,0.33,0.56,0.48
					c0.35,0.34,0.74,0.71,1.09,0.94c0.78,0.5,1.83,0.81,2.73,0.93c1.97,0.25,4.36,0.34,6.86,0.33c1.36,0.2,2.72,0.39,4.08,0.59
					c-0.28,0.06-0.57,0.12-0.85,0.18c-0.3,0.06-0.6,0.13-0.9,0.2c-0.24,0.06-0.47,0.11-0.7,0.17c-0.44,0.11-0.89,0.21-1.33,0.33
					c-1.64,0.46-3.15,1.2-4.52,2.2c-0.06,0.04-0.13,0.07-0.19,0.11c-0.21,0.13-0.51,0.49-0.63,0.56c0.09-0.06,0.18-0.1,0.28-0.16
					c0,0-0.01,0.01-0.01,0.01c-0.07,0.05-0.34,0.79-0.36,0.79c0.07,0,0.13,0.01,0.2,0.01c-0.11,0.08-0.22,0.14-0.33,0.22
					c-0.04,0.03,0.12,0.38,0.24,0.61c-1.34,1.61-2.68,3.22-4.02,4.83c-0.22,0.03-0.46,0.14-0.64,0.08c0.14,0.05,0.29,0.1,0.43,0.14
					c-0.27,0.08-0.53,0.17-0.8,0.25c-0.06,0.02-0.18,0.35-0.27,0.58c-0.04,0.07-0.07,0.15-0.11,0.22c0.12,0.05,0.25,0.09,0.37,0.14
					c0,0.21,0.02,0.42,0.06,0.43c0.04,0.02,0.09,0.03,0.13,0.05c0.12,0.12,0.27,0.26,0.37,0.35c-0.07,0.08-0.15,0.16-0.22,0.24
					c0.01,0,0.02,0.01,0.02,0.01c2.4,0.8,4.28,1.39,6.81,1.73c1.22,0.16,2.45,0.3,3.68,0.42c1.12,0.09,2.24,0.18,3.36,0.27
					c0.15,0,0.31,0.01,0.46,0.01c-0.38-0.03-0.77-0.07-1.15-0.1c0.04-0.05,0.08-0.11,0.12-0.16c1.16,0.1,2.32,0.18,3.48,0.29
					c1.09,0.07,2.16,0.21,3.21,0.41c-0.14,0.04-0.29,0.07-0.43,0.11c-1.7-0.35-3.44-0.53-5.23-0.55c0.17,0.02,0.35,0.03,0.52,0.05
					c0.61,0.04,1.21,0.1,1.82,0.16c0.14,0.02,0.27,0.03,0.41,0.05c0.77,0.09,1.58,0.2,2.37,0.32c-3.33,0.84-6.66,1.67-9.98,2.51
					c0.02,0-0.15,0.02-0.07,0.04c0.05,0.01,0.1,0.02,0.15,0.03c-0.03,0.04-0.07,0.08-0.1,0.14c-0.15,0.02-0.29,0.04-0.44,0.06
					c-0.02,0-0.04,0.56-0.02,0.78c0,0-0.01,0-0.01,0l0.01,0.01c0.01,0.05,0.01,0.09,0.02,0.09c0.04,0.01,0.07,0.01,0.11,0.02
					c0.07,0.06,0.14,0.12,0.22,0.19c0.11,0.13,0.23,0.25,0.31,0.27c0.3-0.04,0.6-0.08,0.9-0.12c3.27,0.77,6.53,1.53,9.8,2.3
					c0.24,0.07,0.48,0.13,0.72,0.2c0.24,0.43,0.44,0.89,0.6,1.4c0.09,0.11,0.16,0.21,0.22,0.32c-0.14,0.14-0.29,0.27-0.44,0.41
					c-0.79,0.6-1.66,1.28-2.37,2.04c-1.04,0.97-1.88,2.04-2.14,3.48c-0.03-0.32-0.05-0.66-0.03-1.02c-0.01,0.27-0.37,0.53-0.38,0.8
					c-0.08,1.42,0.26,2.53,0.87,3.43c0.01,0.02,0.02,0.04,0.03,0.06c0.15,0.45,0.38,0.91,0.73,1.38c1.33,1.8,3.51,2.57,5.51,3.34
					c0.27,0.1,0.62,0,0.88,0.1c-1.1-0.42-2.25-0.85-3.28-1.44c0.88,0.45,1.82,0.83,2.72,1.18c-0.09-0.03-0.37-0.43-0.58-0.54
					c0.15,0.06,0.31,0.12,0.46,0.18c0.08,0.03,0.17,0.02,0.26-0.01c0.02,0.01,0.04,0.01,0.06,0.02c-0.01,0-0.02-0.02-0.03-0.03
					c0.21-0.06,0.45-0.17,0.59-0.12c-0.11-0.04-0.22-0.08-0.33-0.13c0.01-0.02,0.01-0.05,0.02-0.07c0.24,0.1,0.49,0.2,0.72,0.29
					c-0.04-0.02,0.19-0.84,0.08-0.88c-0.07-0.03-0.14-0.05-0.21-0.08c-0.08-0.18-0.15-0.38-0.29-0.43
					c-0.54-0.21-1.09-0.42-1.63-0.63c-0.51-0.3-1.02-0.6-1.53-0.89c0.84,0.42,1.74,0.77,2.63,1.12c0.23,0.09,0.66,0.2,0.8,0.25
					c-1.57-0.61-3.69-1.45-5.07-2.81l-0.39-1.13c0.05-0.42,0.2-0.86,0.46-1.35c-0.46-1.44-0.17-2.47,0.87-3.1
					c0.4-0.34,0.8-0.66,1.22-0.97c1.09-0.83,1.87-1.63,2.69-2.73c0.07-0.09,0.14-0.8,0.08-0.88c-0.2-0.39-0.48-0.69-0.82-0.91
					c-0.18-0.21-0.37-0.38-0.69-0.57c-0.28-0.19-0.59-0.31-0.93-0.37c-0.32-0.09-0.64-0.18-0.96-0.27c0.53-0.73,1.86-1.69,4-2.87
					c0.08-0.01,0.17-0.02,0.25-0.03c0.06,0.03,0.13,0.06,0.19,0.09c0.26,0.11,0.62-0.01,0.88,0.1c-0.21-0.09-0.41-0.17-0.61-0.25
					l0.08-0.01c-0.01,0-0.05-0.03-0.08-0.05C355.68,207.34,355.62,207.29,355.57,207.24C355.57,207.24,355.57,207.24,355.57,207.24z
					 M349.21,191.08c0.11-0.03,0.21-0.05,0.32-0.08c0.14-0.03,0.29-0.07,0.43-0.1c0.1-0.03,0.21-0.05,0.31-0.07
					c0.1-0.03,0.2-0.06,0.29-0.09c0.18-0.05,0.36-0.09,0.54-0.15c0.19-0.05,0.37-0.12,0.56-0.18c-0.16,0.07-0.3,0.15-0.46,0.21
					C350.55,190.79,349.89,190.94,349.21,191.08z M347.84,194.5c-0.13,0.04-0.26,0.08-0.39,0.12c-2.02-0.36-4.04-0.63-6.08-0.81
					c0.13-0.04,0.26-0.09,0.39-0.13C343.8,193.86,345.82,194.14,347.84,194.5z M346.47,178.41c-0.02,0.01-0.04,0.02-0.06,0.04
					c-2.37,0.62-4.73,1.33-7.05,2.14c0.43-0.16,0.85-0.31,1.28-0.46C342.57,179.49,344.51,178.93,346.47,178.41z M349.95,223.45
					l-0.27-0.16c-0.01-0.01-0.01-0.03-0.02-0.04C349.76,223.32,349.85,223.38,349.95,223.45z"/>
			</g>
		</g>
	</g>
	<g>
		<g>
			<path class="st0" d="M286.45,231.09c0-0.11,0-0.2,0.03-0.21c-0.04,0.01-0.09,0.03-0.13,0.04c-0.12-0.23-0.3-0.57-0.37-0.55
				c-0.15,0.05-0.3,0.1-0.46,0.15c-0.18-0.01-0.39-0.01-0.51,0.03c-0.52,0.2-1.04,0.37-1.56,0.56c-1.04,0.33-2.07,0.64-3.11,0.93
				c-0.2-0.09-0.41-0.26-0.58-0.22c-1.95,0.39-3.91,0.77-5.86,1.16c-2.97,0.46-5.95,0.57-8.94,0.32c-3.51-0.16-6.83-0.66-10.3-1.26
				c0.29,0.05,0.55,0.23,0.84,0.28c3.43,0.59,6.81,1.1,10.3,1.26c1.99,0.21,3.98,0.18,5.96-0.09c1.5-0.05,2.99-0.2,4.47-0.43
				c-0.93,0.18-1.87,0.34-2.82,0.46c-0.17,0.02-0.34,0.05-0.51,0.07c-0.66,0.08-1.33,0.14-2.01,0.18c-0.07,0.01-0.14,0.01-0.21,0.01
				c-0.72,0.04-1.45,0.06-2.19,0.06c-3.86-0.02-7.66-0.43-11.45-1.08c-3.02-0.52-6.08-1.17-9.13-1.43c-1.2-0.07-2.4-0.15-3.6-0.22
				c-1.85-0.04-3.67,0.13-5.46,0.52c-0.42,0.07-0.83,0.15-1.25,0.25c-0.44,0.09-0.9,0.18-1.42,0.29c0.06-0.01,0.18-0.01,0.31-0.01
				c-0.04,0.01-0.09,0.02-0.13,0.03c-0.08,0.02-0.14,0.11-0.2,0.22c-0.16,0.04-0.32,0.07-0.48,0.12c-0.07,0.01,0.03,0.75,0.01,0.86
				c0,0,0,0,0,0c0,0,0,0,0,0c0,0.01,0,0.02,0,0.02c0.02,0,0.03-0.01,0.05-0.01c0.17,0.07,0.45,0.6,0.62,0.57
				c3.72-0.81,6.98-1.2,10.8-0.81c3.07,0.31,6.11,0.89,9.15,1.41c3.77,0.65,7.61,1.22,11.45,1.08c1.99-0.15,3.97-0.3,5.96-0.45
				c3.34-0.45,6.58-1.26,9.75-2.37c0.99-0.32,1.96-0.67,2.93-1.05c0.09-0.03,0.05-0.39,0.05-0.64c0.01,0,0.01,0,0.02-0.01
				C286.47,231.11,286.46,231.1,286.45,231.09z"/>
		</g>
	</g>
	<g>
		<g>
			<path class="st0" d="M207.26,318.65c5.67,9.84,15.18,16.61,25.43,21.1c10.66,4.66,22.33,7.15,33.85,8.49
				c23.96,2.8,48.63-0.36,71.18-8.9c12.76-4.83,24.81-11.46,35.71-19.67c0.83-0.63,1.24-1.65,0.69-2.62
				c-0.46-0.82-1.8-1.31-2.62-0.69c-18.8,14.22-41.09,23.69-64.3,27.75c-22.68,3.97-47.12,2.98-68.98-4.62
				c-11.77-4.09-23.17-10.63-29.85-21.51C207.94,317.3,206.85,317.93,207.26,318.65L207.26,318.65z"/>
		</g>
	</g>
	<g>
		<g>
			<path class="st0" d="M191.02,329.29c4.3-4.83,8.47-10.34,10.39-16.58c0.17-0.56-0.69-0.95-0.96-0.41
				c-1.42,2.85-2.75,5.76-4.29,8.55c-1.58,2.87-3.43,5.52-5.55,8.02C190.37,329.16,190.77,329.57,191.02,329.29L191.02,329.29z"/>
		</g>
	</g>
	<g>
		<g>
			<path class="st0" d="M379.52,317.4c-0.95,3.14-0.85,6.55,0.19,9.66c0.99,2.93,2.86,6.24,5.77,7.58c0.68,0.31,1.31-0.45,0.8-1.04
				c-0.94-1.09-2-2.11-2.82-3.29c-0.83-1.19-1.5-2.49-1.95-3.87c-0.91-2.77-1-5.73-0.15-8.53
				C381.72,316.73,379.88,316.22,379.52,317.4L379.52,317.4z"/>
		</g>
	</g>
	<g>
		<g>
			<path class="st0" d="M192,338.05c6.32,10.13,17.46,16.16,28.87,18.72c13.91,3.13,28.51,2.14,42.66,1.87
				c27.21-0.52,54.64-1.62,81.35-7.28c7.3-1.55,14.53-3.44,21.63-5.77c3.62-1.18,7.19-2.48,10.72-3.91
				c3.54-1.43,7.25-2.81,10.36-5.05c1.44-1.04,0.65-3.59-1.28-3.03c-3.24,0.93-6.25,2.49-9.36,3.79c-2.97,1.25-5.98,2.41-9.02,3.5
				c-6.2,2.23-12.51,4.13-18.9,5.73c-12.86,3.24-26,5.33-39.19,6.71c-13.17,1.37-26.41,2.08-39.64,2.56
				c-6.73,0.25-13.46,0.45-20.19,0.62c-7.13,0.19-14.29,0.27-21.4-0.5c-13.52-1.48-27.75-6.76-35.43-18.65
				C192.7,336.63,191.53,337.3,192,338.05L192,338.05z"/>
		</g>
	</g>
</g>
<g>
	<g>
		<path class="st0" d="M217.45,531.5c-3.59,0.96-4.31,5.98-2.04,8.56c0.62,0.71,1.36,1.01,2.23,1.3c1.02,0.34,1.98,0.63,3.07,0.65
			c2.09,0.04,4.16-0.72,5.85-1.92c3.49-2.48,5.81-6.8,5-11.13c-0.76-4.06-4.33-6.92-8.19-7.87c-4.4-1.08-9.5,0.19-12.35,3.85
			c-0.51,0.66,0.35,1.59,0.94,0.94c4.28-4.76,13.67-4.61,17.11,1.13c1.9,3.16,0.97,7.04-1.32,9.74c-2.39,2.82-5.89,4.28-9.46,3.02
			c-0.72-0.25-1.31-0.46-1.77-1.11c-0.42-0.6-0.61-1.35-0.64-2.07c-0.05-1.44,0.55-2.97,2.05-3.36
			C219.05,532.94,218.58,531.2,217.45,531.5L217.45,531.5z"/>
	</g>
</g>
<g>
	<g>
		<path class="st0" d="M432.67,284.44c-20.89,5.59-31.16,26.88-38.18,45.5c-10.04,26.6-19.44,53.75-26.56,81.28
			c-7.36,28.47-11.09,57.33-10.58,86.74c0.52,30.08,4.38,59.95,6.84,89.9c4,48.63,3.51,99.88-19.78,144.14
			c-5.21,9.9-11.52,19.23-19.07,27.5c-7.61,8.34-16.33,14.72-25.59,21.05c-7.34,5.02-17.73,12.66-16.8,22.79
			c0.45,4.98,3.62,8.73,7.35,11.77c4.37,3.57,8.72,6.74,12.01,11.42c13.1,18.6,9.18,44.42,5.87,65.41
			c-3.17,20.05-5.93,44.31,5.51,62.42c2.62,4.15,5.96,7.61,9.86,10.58c1.35,1.03,3.09-1.24,1.82-2.36
			c-16.94-14.97-17.12-39.25-14.79-60.03c2.38-21.26,7.73-43.16,1.2-64.26c-2.95-9.53-8.44-17.34-16.38-23.34
			c-4.74-3.58-10.32-7.73-9.32-14.47c0.79-5.3,5.17-9.52,9.08-12.79c4.44-3.71,9.45-6.58,14.15-9.92c4.15-2.96,8.11-6.19,11.83-9.67
			c7.63-7.15,14.26-15.36,19.87-24.17c24.35-38.24,29.73-85.43,27.73-129.78c-1.33-29.42-5.28-58.63-7.47-87.99
			c-2.2-29.46-2.17-58.88,3.06-88.03c5.04-28.08,13.7-55.39,23.12-82.26c4.21-12.01,8.14-24.25,13.41-35.85
			c4.39-9.65,9.92-19.27,18.19-26.12c4.18-3.46,8.98-5.91,14.21-7.3C434.65,286.22,434.06,284.06,432.67,284.44L432.67,284.44z"/>
	</g>
</g>
<g>
	<g>
		<path class="st0" d="M432.72,286.28c11.63,3.06,23.32,10.78,26.91,22.86c3.13,10.54-0.87,23.36-11.17,28.25
			c-0.54,0.26-0.42,1.2,0.17,1.31c6.16,1.15,13.03,2.38,17.78,6.82c4.76,4.45,5.63,11.01,0.78,15.61c-0.9,0.86-0.56,2.79,0.79,3
			c47.93,7.45,78.79,50.78,95.61,93c18.37,46.1,25.56,97.75,16.57,146.8c-5,27.26-15.17,53.37-31.07,76.14
			c-0.74,1.06,0.26,2.43,1.41,2.46c14.94,0.34,37.18,2.02,43.51,18.44c2.08,5.4,1.79,11.32,1.61,17c-0.2,6.33-0.4,12.65-0.6,18.98
			c-0.39,12.43-0.79,24.85-1.19,37.28c-0.81,25.31-1.62,50.61-2.43,75.92c-0.2,6.1-0.39,12.2-0.59,18.3
			c-0.04,1.39,0.21,2.95-0.55,4.16c-0.7,1.1-2.54,2.19-3.51,3.02c-2.34,2.02-4.67,4.03-7,6.06c-9.31,8.1-18.52,16.3-27.7,24.55
			c-20.46,18.38-41.13,36.73-60.56,56.19c-1.75,1.75,0.89,4.35,2.71,2.71c19.28-17.44,38.01-35.49,57.34-52.88
			c9.5-8.55,19.06-17.03,28.68-25.44c2.32-2.03,4.64-4.07,6.96-6.1c1.16-1.02,2.32-2.03,3.49-3.04c1.05-0.92,3.14-2.17,3.81-3.45
			c1.04-2.01,0.4-5.57,0.46-7.81c0.09-3.39,0.18-6.78,0.27-10.17c0.71-26.44,1.42-52.87,2.13-79.31
			c0.36-13.33,0.72-26.66,1.08-39.99c0.18-6.55,0.36-13.1,0.53-19.66c0.14-5.62,0.25-11.41-1.67-16.78
			c-6.58-18.36-30.13-20.82-46.77-21.24c0.47,0.82,0.94,1.64,1.41,2.46c29.5-42,39.72-94.2,35.1-144.78
			c-2.34-25.58-8.18-50.84-17.19-74.89c-8.52-22.75-20.01-44.62-35.87-63.14c-16.81-19.64-39.3-35.32-65.49-38.29
			c0.42,1.02,0.85,2.04,1.27,3.07c4.3-4.43,2.83-12.31-0.46-16.95c-4.52-6.36-13.1-8.03-20.25-9.4c0.06,0.44,0.11,0.87,0.17,1.31
			c10.65-5,15.32-18.05,12.46-29.12c-3.4-13.14-15.93-21.71-28.43-24.99C432.07,284.21,431.58,285.98,432.72,286.28L432.72,286.28z"
			/>
	</g>
</g>
<g>
	<g>
		<path class="st0" d="M468.27,1006.91c-6.52-14.68-12.49-29.59-17.9-44.71c-5.4-15.1-10.25-30.39-14.53-45.84
			c-4.29-15.51-8.05-31.18-11.15-46.98c-3.16-16.12-5.43-32.65-3.58-49.08c1.54-13.7,6.2-27.57,14.79-38.49
			c1.09-1.39,2.23-2.74,3.43-4.04c1-1.09-0.57-2.68-1.63-1.63c-10.12,9.97-16.03,23.44-18.63,37.27
			c-3.02,16.08-1.61,32.57,1.13,48.59c2.78,16.27,6.58,32.41,10.81,48.36c4.19,15.8,8.98,31.45,14.34,46.89
			c5.36,15.42,11.29,30.64,17.78,45.62c0.81,1.88,1.63,3.75,2.46,5.61C466.41,1010.28,469.07,1008.71,468.27,1006.91L468.27,1006.91
			z"/>
	</g>
</g>
<g>
	<g>
		<path class="st0" d="M104.57,378.38c-18.87,4.05-36.61,13.19-51.14,25.85c-15.03,13.09-26.49,30.05-32.68,49.02
			c-6.68,20.47-7.37,42.86-2.08,63.72c1.34,5.29,3.08,10.47,5.19,15.5c2.18,5.17,4.92,10.08,7.16,15.22
			c2.24,5.15,4.03,10.73,3.54,16.42c-0.42,4.8-2.65,9.1-5.43,12.94c-5.35,7.4-12.65,13.52-15.63,22.41
			c-2.96,8.81-2.12,18.6-5.97,27.15c-0.94,2.1-2.21,4.01-3.8,5.66c-0.38,0.4,0.21,0.99,0.61,0.61c6.72-6.46,7.13-16.19,8.66-24.82
			c0.82-4.62,2.1-9.07,4.5-13.13c2.37-4,5.5-7.46,8.53-10.95c2.93-3.37,5.88-6.84,7.94-10.83c2.28-4.41,3.21-9.28,2.63-14.22
			c-0.65-5.53-2.79-10.72-5.12-15.72c-2.37-5.09-4.91-10.08-6.91-15.34c-7.67-20.23-9.19-42.7-4.53-63.82
			c4.39-19.92,14.39-38.18,28.7-52.7c13.6-13.8,30.68-24.04,49.38-29.17c2.32-0.64,4.67-1.19,7.03-1.67
			C106.56,380.24,105.97,378.08,104.57,378.38L104.57,378.38z"/>
	</g>
</g>
<g>
	<g>
		<path class="st0" d="M219.09,570.98c9.75,13.1,22.57,23.77,37.17,31.08c7.29,3.65,14.99,6.48,22.92,8.35
			c3.96,0.93,7.98,1.62,12.02,2.08c3.59,0.41,7.2,0.65,10.78,1.15c6.36,0.9,13.89,2.47,17.92,7.99c4.62,6.32,2.34,14.48,1.15,21.52
			c-0.61,3.63-1.07,7.31-0.51,10.97c0.55,3.57,2.22,6.76,4.72,9.36c4.92,5.12,12.25,7.67,16.32,13.63
			c3.53,5.17,4.34,11.71,5.63,17.69c1.16,5.37,2.66,11.4,7.35,14.81c1.11,0.81,2.36,1.38,3.66,1.8c1.32,0.43,1.88-1.64,0.57-2.07
			c-5.63-1.86-7.63-7.56-8.87-12.84c-1.42-6.04-2.08-12.36-4.79-18.01c-3.09-6.42-9.25-9.66-14.68-13.81
			c-2.79-2.13-5.42-4.7-6.62-8.07c-1.23-3.45-1.06-7.2-0.56-10.78c1.01-7.2,3.6-15.01,0.74-22.11c-2.57-6.37-8.63-9.74-15-11.37
			c-7.11-1.82-14.49-1.85-21.7-2.98c-8.01-1.25-15.86-3.49-23.34-6.59c-14.94-6.2-28.42-15.98-38.89-28.32
			c-1.32-1.55-2.58-3.14-3.79-4.77C220.32,568.41,218.11,569.67,219.09,570.98L219.09,570.98z"/>
	</g>
</g>
<g>
	<g>
		<path class="st0" d="M464.32,363.35c-13.49,7.43-23.44,19.71-30.76,33.04c-7.89,14.37-12.82,30.05-18.39,45.4
			c-2.9,7.97-5.99,15.89-9.82,23.47c-3.75,7.43-8.35,14.25-13.41,20.84c-4.92,6.41-10.06,12.73-14,19.82
			c-4.19,7.54-6.47,15.67-7.38,24.22c-1.79,16.81,1.57,34-2.02,50.64c-0.21,0.99-0.5,1.96-0.72,2.95c-0.25,1.13-0.27,2.31-0.38,3.46
			c-0.23,2.32,3.16,2.97,4.22,1.14c1.14-1.96,1.79-3.86,2.26-6.07c0.47-2.15,0.81-4.33,1.09-6.51c0.54-4.19,0.74-8.42,0.79-12.64
			c0.1-8.46-0.41-16.91-0.13-25.37c0.26-8.11,1.32-16.32,4.56-23.82c3.14-7.29,7.92-13.76,12.73-20.02
			c4.99-6.49,10.04-12.9,14.13-20.02c4.24-7.38,7.63-15.22,10.66-23.17c5.8-15.22,10.23-30.99,17.3-45.7
			c6.33-13.18,14.79-26.01,27.03-34.39c1.54-1.06,3.13-2.03,4.76-2.94C469.66,366.1,467.15,361.79,464.32,363.35L464.32,363.35z"/>
	</g>
</g>
<g>
	<g>
		<path class="st0" d="M456.1,331.02c-16.05,18.67-30.24,39.04-42.23,60.55c-6.02,10.79-11.56,21.82-16.36,33.21
			c-4.84,11.47-8.97,23.17-12.6,35.08c-2.09,6.84-4.12,13.71-6.56,20.43c-2.42,6.69-5.54,13.05-8.47,19.52
			c-0.82,1.81,1.45,3.1,2.63,1.54c3.89-5.12,6.38-11.08,8.67-17.06c2.25-5.84,4.13-11.81,5.97-17.78
			c3.64-11.87,7.4-23.67,11.94-35.23c8.97-22.81,20.06-44.85,33.58-65.31c7.65-11.59,16.11-22.67,25.14-33.23
			C458.82,331.55,457.12,329.83,456.1,331.02L456.1,331.02z"/>
	</g>
</g>
<g>
	<g>
		<path class="st0" d="M217.52,570.2c6-8.72,11.67-17.76,15.92-27.47c3.96-9.03,6.86-18.89,6.29-28.85
			c-0.59-10.13-5.05-18.89-11.82-26.3c-3.56-3.9-7.45-7.48-11.03-11.35c-3.48-3.77-6.77-7.69-9.67-11.92
			c-5.87-8.55-10.41-18.01-13.33-27.97c-3.26-11.13-4.3-22.65-4.32-34.2c-0.05-22.22,3.47-44.78-0.88-66.8
			c-3.29-16.68-10.91-33.54-24.82-43.96c-3.42-2.56-7.19-4.59-11.19-6.11c-4.41-1.68-9.98-2.8-13.42,1.35
			c-2.95,3.55-2.88,8.53-2.67,12.89c0.26,5.48,0.69,10.95,1.3,16.4c2.47,22.19,7.74,43.97,15.63,64.86
			c3.94,10.43,8.52,20.63,13.74,30.48c5.26,9.92,11.45,19.3,16.91,29.1c5.26,9.45,9.27,19.27,11.34,29.91
			c1.96,10.07,2.46,20.35,2.65,30.58c0.39,20.24-0.65,41.51,5.75,61c1.56,4.75,3.59,9.26,5.93,13.67c1.13,2.13,4.37,0.24,3.24-1.89
			c-4.58-8.61-6.96-18.44-8.33-28.04c-1.41-9.87-1.59-19.9-1.68-29.85c-0.18-20,0.11-40.73-6.69-59.84
			c-3.69-10.38-9.38-19.84-15.09-29.21c-5.69-9.33-11.12-18.78-15.81-28.66c-9.33-19.65-16.07-40.5-20.19-61.86
			c-2.04-10.58-3.41-21.28-4.09-32.03c-0.27-4.17-1.18-9.37,0.56-13.35c1.99-4.53,7.52-2.28,10.94-0.84
			c15.34,6.45,24.67,21.6,29.47,36.9c6.22,19.84,4.56,40.64,3.81,61.11c-0.43,11.71-0.52,23.47,1.18,35.1
			c1.49,10.21,4.58,20.11,9.11,29.39c4.46,9.13,10.37,17.65,17.42,24.97c6.98,7.25,15.36,13.26,20.01,22.44
			c9.43,18.6-0.05,40.31-9.7,56.72c-2.54,4.32-5.27,8.53-8.09,12.68C215.22,570.25,216.84,571.18,217.52,570.2L217.52,570.2z"/>
	</g>
</g>
<g>
	<g>
		<path class="st0" d="M129.21,323.76c-7-4.14-15.77-8.62-24.14-6.49c-8.15,2.08-11.64,9.97-12.27,17.69
			c-0.36,4.33,0.04,8.7,0.6,12.99c0.62,4.75,1.55,9.46,2.76,14.09c2.45,9.37,5.99,18.42,10.05,27.2
			c8.54,18.43,19.22,35.85,29.21,53.51c10.7,18.93,21.26,37.94,31.67,57.02c5.21,9.54,10.37,19.11,15.47,28.71
			c4.58,8.62,9.74,17.72,10.76,27.62c0.24,2.37,0.31,4.73,0.09,7.11c-0.21,2.32,3.78,2.89,4.11,0.56
			c1.38-9.99-2.02-19.36-6.44-28.17c-4.66-9.29-9.92-18.29-14.93-27.39c-10.24-18.61-20.63-37.15-31.14-55.61
			c-5.26-9.23-10.55-18.44-15.87-27.64c-4.86-8.38-9.79-16.73-14.36-25.27c-8.94-16.71-16.77-34.51-19.09-53.49
			c-0.9-7.38-1.67-16.84,3.61-22.89c6.11-6.99,15.97-4.26,23.27-0.98c1.97,0.88,3.88,1.87,5.77,2.9
			C129.31,325.77,130.17,324.32,129.21,323.76L129.21,323.76z"/>
	</g>
</g>
<g>
	<g>
		<path class="st0" d="M277.16,361.59c-1.29,18.02-2.55,36.05-3.79,54.08c-1.24,18.02-2.63,36.04-3.7,54.08
			c-0.6,10.11-1.51,20.27-1.08,30.4c0.06,1.33,2.21,1.79,2.46,0.33c1.52-8.92,1.97-17.98,2.58-27c0.61-9.05,1.1-18.11,1.63-27.16
			c1.05-18.03,2.1-36.05,3.16-54.08c0.6-10.22,1.15-20.44,1.72-30.65C280.23,359.68,277.3,359.7,277.16,361.59L277.16,361.59z"/>
	</g>
</g>
<g>
	<g>
		<path class="st0" d="M278.66,509.45c7.65,11.61,24.56,15.81,36.62,8.8c0.76-0.44,0.07-1.62-0.69-1.18
			c-11.69,6.72-27.94,3.33-35.7-7.76C278.8,509.17,278.56,509.3,278.66,509.45L278.66,509.45z"/>
	</g>
</g>
<g>
	<g>
		<path class="st0" d="M304.62,375.89c-6.24,3.16-10.37,9.83-10.48,16.81c0,0.29,0.16,0.59,0.42,0.73c2.97,1.62,7.06,0.15,8.18-3.1
			c1.07-3.11-1.45-7.33-4.9-7.32c-0.51,0-0.66,0.81-0.12,0.92c1.39,0.29,2.53,0.91,3.32,2.13c0.73,1.13,0.99,2.57,0.45,3.84
			c-0.94,2.19-3.99,3.2-6.06,2.06c0.14,0.24,0.28,0.49,0.42,0.73c0.13-6.4,3.97-12.4,9.69-15.26
			C306.56,376.93,305.66,375.37,304.62,375.89L304.62,375.89z"/>
	</g>
</g>
<g>
	<g>
		<path class="st0" d="M301.51,420.24c0.84,2.16,1.67,4.31,2.51,6.47c0.27,0.7,1.27,0.78,1.51,0c0.52-1.68,0.4-3.63,0.02-5.32
			c-0.37-1.63-1.15-3.51-2.51-4.54c-0.37-0.28-0.83,0.25-0.61,0.61c0.39,0.67,0.87,1.28,1.23,1.97c0.36,0.71,0.62,1.48,0.79,2.26
			c0.34,1.6,0.08,3.07-0.42,4.6c0.5,0,1.01,0,1.51,0c-0.8-2.17-1.6-4.33-2.4-6.5c-0.16-0.43-0.57-0.71-1.03-0.59
			C301.7,419.31,301.35,419.81,301.51,420.24L301.51,420.24z"/>
	</g>
</g>
<g>
	<g>
		<path class="st0" d="M302.49,466.08c-1.99,4.46,4.37,8.49,8,5.78c1.88-1.41,2.56-3.78,2.28-6.04c-0.31-2.44-1.69-4.46-3.71-5.82
			c-2.59-1.74-5.93-2.19-8.97-1.79c-0.56,0.07-0.59,0.95,0,0.9c4.18-0.35,9.78,0.57,11.21,5.2c0.55,1.77,0.42,3.8-0.61,5.37
			c-1.01,1.55-2.77,2.07-4.47,1.39c-1.6-0.63-3.3-2.44-2.47-4.26C304.12,465.96,302.86,465.23,302.49,466.08L302.49,466.08z"/>
	</g>
</g>
<g>
	<g>
		<path class="st0" d="M470.22,1007.96c9.62-5.97,19.46-11.58,29.53-16.77c1.93-1,1.15-3.55-0.55-4.21
			c-9.36-3.67-15.52-11.99-19.46-20.91c-4.33-9.79-6.3-20.53-8.03-31.03c-5.03-30.55-10.14-61.09-15.28-91.63
			c-2.9-17.23-5.67-34.49-8.79-51.68c-0.27-1.46-2.05-2.29-3.39-1.92c-1.57,0.43-2.15,1.91-1.92,3.39
			c4.83,31.25,10.38,62.41,15.62,93.6c2.59,15.43,5.25,30.84,7.89,46.26c1.95,11.36,4.08,22.71,8.6,33.38
			c4.66,10.98,12.11,20.64,23.54,24.99c-0.18-1.4-0.37-2.81-0.55-4.21c-9.98,5.35-19.75,11.07-29.29,17.18
			C465.9,1005.82,467.95,1009.38,470.22,1007.96L470.22,1007.96z"/>
	</g>
</g>
<g>
	<g>
		<path class="st0" d="M469.93,818.09c3.19,0,3.2-4.96,0-4.96C466.74,813.13,466.73,818.09,469.93,818.09L469.93,818.09z"/>
	</g>
</g>
<g>
	<g>
		<path class="st0" d="M469.58,810.61c3.9-14.22,7.79-28.44,11.71-42.66c1.64-5.96,4.34-12.61,2.68-18.84
			c-0.91-3.44-3.03-6.4-5.55-8.86c-5.49-5.39-12.56-8.71-18.46-13.57c-2.56-2.1-5.04-4.61-6.14-7.81
			c-1.62-4.71,0.65-8.89,1.78-13.42c0.7-2.79,0.64-5.69-1.25-8.02c-1.97-2.43-5.1-3.59-7.86-4.84c-7.52-3.43-15.01-6.93-22.49-10.43
			c0.14,0.33,0.27,0.67,0.41,1c7.37-26.13,7.57-54.25,1.4-80.63c-1.76-7.53-4.02-14.99-6.96-22.15c-0.68-1.67-3.43-0.96-2.75,0.76
			c4.93,12.51,8.61,25.4,10.43,38.74c1.82,13.32,1.96,26.9,0.43,40.25c-0.87,7.62-2.35,15.14-4.26,22.56
			c-0.09,0.34,0.05,0.84,0.41,1c6.59,2.91,13.18,5.8,19.74,8.78c2.79,1.26,5.79,2.36,8.36,4.04c2.72,1.78,3.87,4.42,3.28,7.62
			c-0.86,4.65-3.39,8.79-2.37,13.65c0.65,3.08,2.51,5.76,4.69,7.98c5.23,5.3,12.1,8.58,17.84,13.24c2.73,2.21,5.3,4.76,6.86,7.95
			c2.61,5.33,0.96,11.12-0.46,16.55c-4.09,15.64-8.21,31.27-12.32,46.9C468.61,810.92,469.43,811.14,469.58,810.61L469.58,810.61z"
			/>
	</g>
</g>
</svg>
