<?xml version="1.0" encoding="utf-8"?>
<!-- Generator: Adobe Illustrator 25.0.0, SVG Export Plug-In . SVG Version: 6.00 Build 0)  -->
<svg version="1.1" id="Calque_1" xmlns="http://www.w3.org/2000/svg" xmlns:xlink="http://www.w3.org/1999/xlink" x="0px" y="0px"
	 viewBox="0 0 142.4 132" style="enable-background:new 0 0 142.4 132;" xml:space="preserve">
<style type="text/css">
	.st0{fill:#FFFFFF;}
</style>
<g>
	<g>
		<path class="st0" d="M20.78,66.48c2.08,5.12,3.63,10.45,4.27,15.95c0.56,4.82-0.04,9.7,0.7,14.48c0.39,2.51,3.77,1.88,4.48,0
			c3.66-9.58,0.01-22.96-3.64-32.04C25.15,61.33,19.32,62.89,20.78,66.48L20.78,66.48z"/>
	</g>
</g>
<g>
	<g>
		<path class="st0" d="M27.69,65.65c7.33-2.86,14.79-5.71,21.45-9.97c6.02-3.84,10.44-8.61,14.82-14.18c-1.93-0.8-3.86-1.6-5.79-2.4
			c0.02,0.54,0.04,1.09,0.05,1.63c0.06,1.79,2.1,3.22,3.74,2.15c0.43-0.28,0.87-0.57,1.3-0.85c4.96-3.24-2.46-9.82-4.98-3.83
			c-5.14,12.18-21.11,18.56-32.22,23.6C23.92,62.77,25.46,66.52,27.69,65.65L27.69,65.65z"/>
	</g>
</g>
<g>
	<g>
		<path class="st0" d="M67.05,41.19c-0.08-0.15-0.13-0.3-0.16-0.46c-0.55-0.14-1.09-0.29-1.64-0.43c-1.93,1.89,2.03,5.94,2.94,7.54
			c3.44,6.09,6.04,12.84,8.09,19.52c1.99,6.48,3.27,13.08,3.95,19.82c0.3,2.95,0.58,6.07,0.27,9.03c-0.23,2.18-1.33,4.18-0.92,6.38
			c0.13,0.71,0.96,1.29,1.66,1.26c10.7-0.41,2.78-29.45,1.24-34.66c-2.29-7.77-5.24-16.25-9.87-22.97
			c-1.07-1.55-4.74-7.71-7.16-6.07c-0.41,0.28-0.67,0.89-0.35,1.34c0.15,0.21,0.3,0.37,0.49,0.55
			C66.17,42.62,67.38,42.04,67.05,41.19L67.05,41.19z"/>
	</g>
</g>
<g>
	<g>
		<g>
			<path class="st0" d="M91.16,36.35c-2.57-1.48-5.83-0.24-7.24,2.29c-1.47,2.64-0.23,5.82,2.35,7.2c2.62,1.4,6.43,0.53,7.27-2.62
				c0.44-1.65-0.19-3.32-1.21-4.61c-1.06-1.35-2.78-3-4.65-2.28c-0.94,0.36-1.61,1.09-1.63,2.14c0,0.07,0,0.14,0,0.22
				c-0.03,1.37,1.32,2.27,2.59,1.97c0.17-0.03,0.33-0.08,0.49-0.14c-0.39,0-0.79,0-1.18,0c0.64,0.18,2.5,1.57,1.82,2.25
				c-0.61,0.61-1.88-0.11-2.29-0.61c-1.3-1.55,0.9-3.02,2.38-2.71C91.68,39.83,92.89,37.34,91.16,36.35L91.16,36.35z"/>
		</g>
	</g>
	<g>
		<g>
			<path class="st0" d="M89.54,19.7c-0.05,7.44,0.9,14.55,2.46,21.82c0.78,3.66,6.55,2.12,5.64-1.55
				c-1.7-6.86-3.07-13.83-4.45-20.76C92.78,17.12,89.56,17.65,89.54,19.7L89.54,19.7z"/>
		</g>
	</g>
	<g>
		<g>
			<path class="st0" d="M92.16,21.98c2.03-0.77,4.1-1.3,6.26-1.56c1.86-0.22,4,0.09,5.35-1.42c0.66-0.73,0.68-1.78,0-2.51
				c-1.6-1.72-4.27-1.1-6.34-0.62c-2.35,0.55-4.6,1.51-6.72,2.66C88.87,19.52,90.13,22.75,92.16,21.98L92.16,21.98z"/>
		</g>
	</g>
	<g>
		<g>
			<path class="st0" d="M101.7,17.99c0.68,5.14,0.74,12.08,3.66,16.5c0.77,1.16,2.62,0.73,2.65-0.72c0.05-2.64-1.04-5.25-1.87-7.72
				c-0.92-2.76-1.89-5.51-2.77-8.28C103.09,16.91,101.57,17,101.7,17.99L101.7,17.99z"/>
		</g>
	</g>
	<g>
		<g>
			<path class="st0" d="M107.57,31.33c-1.3-2.86-5.23-3-7.3-0.94c-2.51,2.48-1.61,6.71,0.84,8.87c1.36,1.2,3.27,1.81,4.95,0.84
				c1.34-0.77,2.06-2.3,2.46-3.73c0.37-1.3,0.47-2.86-0.14-4.11c-0.71-1.47-2.39-2.21-3.72-1.02c-0.52,0.46-0.48,1.19-0.23,1.76
				c0.18,0.39,0.5,0.59,0.6,0.98c0.08,0.33-0.05,0.79-0.14,1.1c-0.08,0.31-0.36,1.43-0.71,1.55c0.02-0.01-0.56-0.55-0.68-0.71
				c-0.46-0.63-0.97-1.99-0.35-2.7c0.51-0.58,1.56-0.6,2.02-0.02C106.33,34.64,108.23,32.78,107.57,31.33L107.57,31.33z"/>
		</g>
	</g>
</g>
<g>
	<g>
		<g>
			<path class="st0" d="M100.82,63.03c-0.52,12.03-0.04,23.96,1.38,35.92c0.48-0.84,0.96-1.67,1.44-2.51
				c-0.79,0.38-1.13,0.91-1.34,1.74c-1.13,4.39,6.19,4.78,5.71,0.77c-1.42-11.94-2.55-23.93-3.48-35.92
				C104.36,60.66,100.93,60.61,100.82,63.03L100.82,63.03z"/>
		</g>
	</g>
	<g>
		<g>
			<path class="st0" d="M103.92,65.45c2.4-1.16,4.88-1.97,7.51-2.35c2.09-0.3,4.38,0.07,6.2-1.13c0.84-0.56,1.32-2.04,0.36-2.79
				c-4.3-3.34-12.02,0.57-15.98,3.02C99.93,63.48,101.75,66.5,103.92,65.45L103.92,65.45z"/>
		</g>
	</g>
	<g>
		<g>
			<path class="st0" d="M115.91,60.85c0.51,8.79,0.2,19.02,3.14,27.41c0.52,1.48,2.76,1.28,2.79-0.38
				c0.18-8.94-2.81-18.46-4.26-27.26C117.42,59.68,115.86,59.9,115.91,60.85L115.91,60.85z"/>
		</g>
	</g>
</g>
<g>
	<g>
		<path class="st0" d="M100.54,97.88c-2.08-2.17-4.98,0.03-5.63,2.34c-0.64,2.29-0.08,5.22,1.91,6.68c1.84,1.36,4.61,1.3,6.11-0.54
			c1.8-2.21,1.11-5.71-0.77-7.63c-1.14-1.17-2.9,0.31-2.19,1.69c0.58,1.14,1.67,2.3,1.25,3.69c-0.36,1.19-1.6,1.46-2.63,0.94
			c-1.93-0.99-1.94-5.68,0.75-5.11C100.53,100.19,101.42,98.8,100.54,97.88L100.54,97.88z"/>
	</g>
</g>
<g>
	<g>
		<path class="st0" d="M119.11,84.84c-2.3-1.09-4.85-0.03-5.73,2.37c-0.61,1.66-0.65,4.28,0.77,5.56c1.75,1.59,4.08,0.24,5.13-1.44
			c1.14-1.82,0.92-4.78-1.55-5.31c-0.77-0.17-1.35,0.13-1.8,0.73c-0.03,0.04-0.05,0.07-0.08,0.11c-0.27,0.36-0.24,1.01,0,1.38
			c0.1,0.16,0.21,0.3,0.33,0.44c0.2,0.2,0.43,0.33,0.7,0.41c0.15,0.23,0.16-0.05,0.11,0.4c-0.03,0.21-0.34,0.57-0.48,0.71
			c-0.12,0.12-0.54,0.3-0.37,0.42c-0.37-0.26,0-1.21,0.12-1.48c0.16-0.35,0.4-0.74,0.72-0.97c0.18-0.13,0.39,0,0.23-0.08
			C119.38,89.22,121.29,85.87,119.11,84.84L119.11,84.84z"/>
	</g>
</g>
<g>
	<g>
		<path class="st0" d="M39.44,98.55c6.82-1.16,13.58-1.09,20.35,0.39c1.4,0.31,2.8,0.66,4.17,1.09c1.34,0.43,3.93,2.28,4.96,1.99
			c1.06,0.74,1.22,0.33,0.49-1.22c0.29-0.34,0.58-0.69,0.87-1.03c-0.29,0.13-0.6,0.49-0.72,0.76c-0.55,1.19-0.29,2.42,0.83,3.17
			c0.09,0.06,0.18,0.12,0.28,0.18c1.33,0.89,2.89,0.14,3.73-0.98c0.1-0.14,0.21-0.27,0.31-0.41c0.58-0.76,0.49-2.09,0-2.86
			c-2.81-4.42-11.5-5.07-16.21-5.67c-6.64-0.84-13.44-0.18-19.89,1.52C36.59,96.02,37.47,98.89,39.44,98.55L39.44,98.55z"/>
	</g>
</g>
<g>
	<g>
		<path class="st0" d="M43.97-130.82c-3.04,24.28-7.26,48.41-9.66,72.77c-0.11,1.15,1.74,1.66,2.21,0.6
			c11.33-25.28,24.08-49.99,36.05-74.99c-0.93-0.39-1.86-0.78-2.79-1.18C59.6-106.43,56.14-77.57,59.36-48.74
			c0.15,1.32,2.07,2.24,2.8,0.76c12.44-25.25,20.92-52.05,29.65-78.74c-1.16-0.16-2.33-0.32-3.49-0.47
			c1.01,14.55,2.19,29.11,3.47,43.64c0.32,3.59-0.11,24.1,8.98,19.18c3.78-2.05,5.6-8.23,7.16-11.88c2.5-5.87,4.45-11.94,6.04-18.12
			c3.08-11.99,5.08-24.43,6.55-36.72c-0.99,0.57-1.99,1.14-2.98,1.71c6.23,3.1,3.86,14.92,2.92,20.34
			c-1.1,6.33-2.95,12.5-4.42,18.74c-0.94,3.99-6.77,23.85,2.85,22.06c4.22-0.78,5.93-6.5,7.39-9.81c2.54-5.77,4.89-11.62,7.01-17.55
			c4.49-12.54,8.48-25.72,10.91-38.82c0.66-3.54-4.77-5.06-5.43-1.5c-2.14,11.52-4.41,22.73-8,33.92c-1.77,5.53-3.73,11-5.88,16.4
			c-1.17,2.95-2.33,5.94-3.69,8.8c-0.59,1.23-0.99,3.94-2.59,3c-1.21-0.71-0.6-2.66-0.48-3.92c1.03-10.95,4.94-21.39,6.49-32.26
			c1-7,2.63-18.88-5.07-22.84c-1.46-0.75-2.78,0.21-2.98,1.71c-2.62,19.67-4.48,39.47-13.17,57.63c-0.41,0.86-0.87,2.46-1.56,3.12
			c-0.35,1.22-1.28,1.47-2.78,0.75c-1.8,0.76-2.65,0.41-2.55-1.04c-0.92-2.12-0.5-5.66-0.66-7.96c-0.37-5.29-0.79-10.58-1.22-15.87
			c-0.89-10.91-1.73-21.83-2.74-32.73c-0.18-1.94-2.89-2.49-3.49-0.47c-8.03,26.6-16.52,53.18-28.81,78.17
			c0.93,0.25,1.87,0.51,2.8,0.76c-3.17-28.4,0.47-57.26,10.36-84.05c0.59-1.61-2.05-2.74-2.79-1.18
			C58.09-108.9,46.95-83.4,34.47-58.64c0.72,0.3,1.45,0.61,2.17,0.91c3.47-24.27,5.11-48.75,7.93-73.09
			C44.62-131.2,44.02-131.2,43.97-130.82L43.97-130.82z"/>
	</g>
</g>
</svg>
